<mxfile host="app.diagrams.net" modified="2023-04-02T13:42:39.593Z" agent="Mozilla/5.0 (Windows NT 10.0; Win64; x64; rv:109.0) Gecko/20100101 Firefox/111.0" etag="0LW3-woEdQaTCxYiq5hL" version="21.1.2">
  <diagram name="1 oldal" id="ZrnnsqC7_nITL_jaTl6k">
    <mxGraphModel dx="1562" dy="894" grid="1" gridSize="10" guides="1" tooltips="1" connect="1" arrows="1" fold="1" page="1" pageScale="1" pageWidth="3500" pageHeight="3500" math="0" shadow="0">
      <root>
        <mxCell id="0" />
        <mxCell id="1" parent="0" />
        <mxCell id="Ra0qux8ydfXJeFuHZ6_D-5" value="WorldState" style="swimlane;fontStyle=1;align=center;verticalAlign=top;childLayout=stackLayout;horizontal=1;startSize=26;horizontalStack=0;resizeParent=1;resizeParentMax=0;resizeLast=0;collapsible=1;marginBottom=0;whiteSpace=wrap;html=1;" parent="1" vertex="1">
          <mxGeometry x="180" y="1660" width="330" height="268" as="geometry" />
        </mxCell>
        <mxCell id="Ra0qux8ydfXJeFuHZ6_D-6" value="&lt;div&gt;+ worldMap: WorldMap&lt;/div&gt;" style="text;strokeColor=none;fillColor=none;align=left;verticalAlign=top;spacingLeft=4;spacingRight=4;overflow=hidden;rotatable=0;points=[[0,0.5],[1,0.5]];portConstraint=eastwest;whiteSpace=wrap;html=1;" parent="Ra0qux8ydfXJeFuHZ6_D-5" vertex="1">
          <mxGeometry y="26" width="330" height="26" as="geometry" />
        </mxCell>
        <mxCell id="3zTF_9KZKke-XSM9ItIY-126" value="&lt;div&gt;+ requests: Seq[Request]&lt;br&gt;&lt;/div&gt;" style="text;strokeColor=none;fillColor=none;align=left;verticalAlign=top;spacingLeft=4;spacingRight=4;overflow=hidden;rotatable=0;points=[[0,0.5],[1,0.5]];portConstraint=eastwest;whiteSpace=wrap;html=1;" parent="Ra0qux8ydfXJeFuHZ6_D-5" vertex="1">
          <mxGeometry y="52" width="330" height="26" as="geometry" />
        </mxCell>
        <mxCell id="Ra0qux8ydfXJeFuHZ6_D-7" value="" style="line;strokeWidth=1;fillColor=none;align=left;verticalAlign=middle;spacingTop=-1;spacingLeft=3;spacingRight=3;rotatable=0;labelPosition=right;points=[];portConstraint=eastwest;strokeColor=inherit;" parent="Ra0qux8ydfXJeFuHZ6_D-5" vertex="1">
          <mxGeometry y="78" width="330" height="8" as="geometry" />
        </mxCell>
        <mxCell id="Ra0qux8ydfXJeFuHZ6_D-8" value="&lt;div&gt;+ hasRequests: Boolean&lt;/div&gt;&lt;div&gt;&lt;br&gt;&lt;/div&gt;" style="text;strokeColor=none;fillColor=none;align=left;verticalAlign=top;spacingLeft=4;spacingRight=4;overflow=hidden;rotatable=0;points=[[0,0.5],[1,0.5]];portConstraint=eastwest;whiteSpace=wrap;html=1;" parent="Ra0qux8ydfXJeFuHZ6_D-5" vertex="1">
          <mxGeometry y="86" width="330" height="26" as="geometry" />
        </mxCell>
        <mxCell id="Ra0qux8ydfXJeFuHZ6_D-10" value="&lt;div&gt;+ processNextRequest: WorldState&lt;/div&gt;&lt;div&gt;&lt;br&gt;&lt;/div&gt;&lt;div&gt;&lt;br&gt;&lt;/div&gt;" style="text;strokeColor=none;fillColor=none;align=left;verticalAlign=top;spacingLeft=4;spacingRight=4;overflow=hidden;rotatable=0;points=[[0,0.5],[1,0.5]];portConstraint=eastwest;whiteSpace=wrap;html=1;" parent="Ra0qux8ydfXJeFuHZ6_D-5" vertex="1">
          <mxGeometry y="112" width="330" height="26" as="geometry" />
        </mxCell>
        <mxCell id="Ra0qux8ydfXJeFuHZ6_D-19" value="+ players: Vector[Player]" style="text;strokeColor=none;fillColor=none;align=left;verticalAlign=top;spacingLeft=4;spacingRight=4;overflow=hidden;rotatable=0;points=[[0,0.5],[1,0.5]];portConstraint=eastwest;whiteSpace=wrap;html=1;" parent="Ra0qux8ydfXJeFuHZ6_D-5" vertex="1">
          <mxGeometry y="138" width="330" height="26" as="geometry" />
        </mxCell>
        <mxCell id="Ra0qux8ydfXJeFuHZ6_D-20" value="&lt;div&gt;+ apply(x: Int, y: Int): Option[Placable]&lt;/div&gt;&lt;div&gt;&lt;br&gt;&lt;/div&gt;&lt;div&gt;&lt;br&gt;&lt;/div&gt;" style="text;strokeColor=none;fillColor=none;align=left;verticalAlign=top;spacingLeft=4;spacingRight=4;overflow=hidden;rotatable=0;points=[[0,0.5],[1,0.5]];portConstraint=eastwest;whiteSpace=wrap;html=1;" parent="Ra0qux8ydfXJeFuHZ6_D-5" vertex="1">
          <mxGeometry y="164" width="330" height="26" as="geometry" />
        </mxCell>
        <mxCell id="Ra0qux8ydfXJeFuHZ6_D-21" value="&lt;div&gt;+ apply(position: Position): Option[Placable]&lt;/div&gt;&lt;div&gt;&lt;br&gt;&lt;/div&gt;&lt;div&gt;&lt;br&gt;&lt;/div&gt;" style="text;strokeColor=none;fillColor=none;align=left;verticalAlign=top;spacingLeft=4;spacingRight=4;overflow=hidden;rotatable=0;points=[[0,0.5],[1,0.5]];portConstraint=eastwest;whiteSpace=wrap;html=1;" parent="Ra0qux8ydfXJeFuHZ6_D-5" vertex="1">
          <mxGeometry y="190" width="330" height="26" as="geometry" />
        </mxCell>
        <mxCell id="Ra0qux8ydfXJeFuHZ6_D-22" value="&lt;div&gt;+ width: Int&lt;br&gt;&lt;/div&gt;&lt;div&gt;&lt;br&gt;&lt;/div&gt;&lt;div&gt;&lt;br&gt;&lt;/div&gt;" style="text;strokeColor=none;fillColor=none;align=left;verticalAlign=top;spacingLeft=4;spacingRight=4;overflow=hidden;rotatable=0;points=[[0,0.5],[1,0.5]];portConstraint=eastwest;whiteSpace=wrap;html=1;" parent="Ra0qux8ydfXJeFuHZ6_D-5" vertex="1">
          <mxGeometry y="216" width="330" height="26" as="geometry" />
        </mxCell>
        <mxCell id="Ra0qux8ydfXJeFuHZ6_D-23" value="&lt;div&gt;+ heigth: Int&lt;br&gt;&lt;/div&gt;&lt;div&gt;&lt;br&gt;&lt;/div&gt;&lt;div&gt;&lt;br&gt;&lt;/div&gt;" style="text;strokeColor=none;fillColor=none;align=left;verticalAlign=top;spacingLeft=4;spacingRight=4;overflow=hidden;rotatable=0;points=[[0,0.5],[1,0.5]];portConstraint=eastwest;whiteSpace=wrap;html=1;" parent="Ra0qux8ydfXJeFuHZ6_D-5" vertex="1">
          <mxGeometry y="242" width="330" height="26" as="geometry" />
        </mxCell>
        <mxCell id="Ra0qux8ydfXJeFuHZ6_D-28" value="WorldMap" style="swimlane;fontStyle=1;align=center;verticalAlign=top;childLayout=stackLayout;horizontal=1;startSize=26;horizontalStack=0;resizeParent=1;resizeParentMax=0;resizeLast=0;collapsible=1;marginBottom=0;whiteSpace=wrap;html=1;" parent="1" vertex="1">
          <mxGeometry x="210" y="1412" width="290" height="164" as="geometry" />
        </mxCell>
        <mxCell id="Ra0qux8ydfXJeFuHZ6_D-29" value="+ map: Vector[Vector[Placeable]]" style="text;strokeColor=none;fillColor=none;align=left;verticalAlign=top;spacingLeft=4;spacingRight=4;overflow=hidden;rotatable=0;points=[[0,0.5],[1,0.5]];portConstraint=eastwest;whiteSpace=wrap;html=1;" parent="Ra0qux8ydfXJeFuHZ6_D-28" vertex="1">
          <mxGeometry y="26" width="290" height="26" as="geometry" />
        </mxCell>
        <mxCell id="EgayNI9YoJuXjLUuR_HX-2" value="+ players: Vector[Player]" style="text;strokeColor=none;fillColor=none;align=left;verticalAlign=top;spacingLeft=4;spacingRight=4;overflow=hidden;rotatable=0;points=[[0,0.5],[1,0.5]];portConstraint=eastwest;whiteSpace=wrap;html=1;" vertex="1" parent="Ra0qux8ydfXJeFuHZ6_D-28">
          <mxGeometry y="52" width="290" height="26" as="geometry" />
        </mxCell>
        <mxCell id="EgayNI9YoJuXjLUuR_HX-1" value="+ mobs: Vector[Mobs]" style="text;strokeColor=none;fillColor=none;align=left;verticalAlign=top;spacingLeft=4;spacingRight=4;overflow=hidden;rotatable=0;points=[[0,0.5],[1,0.5]];portConstraint=eastwest;whiteSpace=wrap;html=1;" vertex="1" parent="Ra0qux8ydfXJeFuHZ6_D-28">
          <mxGeometry y="78" width="290" height="26" as="geometry" />
        </mxCell>
        <mxCell id="EgayNI9YoJuXjLUuR_HX-3" value="+ gameRules: GameRules" style="text;strokeColor=none;fillColor=none;align=left;verticalAlign=top;spacingLeft=4;spacingRight=4;overflow=hidden;rotatable=0;points=[[0,0.5],[1,0.5]];portConstraint=eastwest;whiteSpace=wrap;html=1;" vertex="1" parent="Ra0qux8ydfXJeFuHZ6_D-28">
          <mxGeometry y="104" width="290" height="26" as="geometry" />
        </mxCell>
        <mxCell id="Ra0qux8ydfXJeFuHZ6_D-30" value="" style="line;strokeWidth=1;fillColor=none;align=left;verticalAlign=middle;spacingTop=-1;spacingLeft=3;spacingRight=3;rotatable=0;labelPosition=right;points=[];portConstraint=eastwest;strokeColor=inherit;" parent="Ra0qux8ydfXJeFuHZ6_D-28" vertex="1">
          <mxGeometry y="130" width="290" height="8" as="geometry" />
        </mxCell>
        <mxCell id="Ra0qux8ydfXJeFuHZ6_D-31" value="+ method(type): type" style="text;strokeColor=none;fillColor=none;align=left;verticalAlign=top;spacingLeft=4;spacingRight=4;overflow=hidden;rotatable=0;points=[[0,0.5],[1,0.5]];portConstraint=eastwest;whiteSpace=wrap;html=1;" parent="Ra0qux8ydfXJeFuHZ6_D-28" vertex="1">
          <mxGeometry y="138" width="290" height="26" as="geometry" />
        </mxCell>
        <mxCell id="Ra0qux8ydfXJeFuHZ6_D-32" value="" style="endArrow=diamondThin;html=1;rounded=0;exitX=0.523;exitY=0.995;exitDx=0;exitDy=0;exitPerimeter=0;entryX=0.411;entryY=-0.005;entryDx=0;entryDy=0;entryPerimeter=0;endFill=1;" parent="1" source="Ra0qux8ydfXJeFuHZ6_D-31" target="Ra0qux8ydfXJeFuHZ6_D-5" edge="1">
          <mxGeometry width="50" height="50" relative="1" as="geometry">
            <mxPoint x="330" y="1640" as="sourcePoint" />
            <mxPoint x="380" y="1590" as="targetPoint" />
          </mxGeometry>
        </mxCell>
        <mxCell id="Ra0qux8ydfXJeFuHZ6_D-34" value="&lt;div&gt;&lt;span style=&quot;font-weight: normal;&quot;&gt;«interface»&lt;br&gt;&lt;/span&gt;&lt;/div&gt;&lt;div&gt;Item&lt;/div&gt;" style="swimlane;fontStyle=1;align=center;verticalAlign=top;childLayout=stackLayout;horizontal=1;startSize=40;horizontalStack=0;resizeParent=1;resizeParentMax=0;resizeLast=0;collapsible=1;marginBottom=0;whiteSpace=wrap;html=1;" parent="1" vertex="1">
          <mxGeometry x="1260" y="1390" width="160" height="92" as="geometry" />
        </mxCell>
        <mxCell id="Ra0qux8ydfXJeFuHZ6_D-35" value="&lt;div&gt;+ name: String&lt;/div&gt;" style="text;strokeColor=none;fillColor=none;align=left;verticalAlign=top;spacingLeft=4;spacingRight=4;overflow=hidden;rotatable=0;points=[[0,0.5],[1,0.5]];portConstraint=eastwest;whiteSpace=wrap;html=1;" parent="Ra0qux8ydfXJeFuHZ6_D-34" vertex="1">
          <mxGeometry y="40" width="160" height="26" as="geometry" />
        </mxCell>
        <mxCell id="Ra0qux8ydfXJeFuHZ6_D-38" value="&lt;div&gt;+ maxStackSize: Int&lt;/div&gt;&lt;div&gt;&lt;br&gt;&lt;/div&gt;" style="text;strokeColor=none;fillColor=none;align=left;verticalAlign=top;spacingLeft=4;spacingRight=4;overflow=hidden;rotatable=0;points=[[0,0.5],[1,0.5]];portConstraint=eastwest;whiteSpace=wrap;html=1;" parent="Ra0qux8ydfXJeFuHZ6_D-34" vertex="1">
          <mxGeometry y="66" width="160" height="26" as="geometry" />
        </mxCell>
        <mxCell id="Ra0qux8ydfXJeFuHZ6_D-39" value="&lt;div&gt;«interface»&lt;br&gt;&lt;/div&gt;&lt;div&gt;Placeable&lt;br&gt;&lt;/div&gt;" style="swimlane;fontStyle=1;align=center;verticalAlign=top;childLayout=stackLayout;horizontal=1;startSize=44;horizontalStack=0;resizeParent=1;resizeParentMax=0;resizeLast=0;collapsible=1;marginBottom=0;whiteSpace=wrap;html=1;" parent="1" vertex="1">
          <mxGeometry x="1090" y="1576" width="160" height="44" as="geometry" />
        </mxCell>
        <mxCell id="Ra0qux8ydfXJeFuHZ6_D-43" value="" style="endArrow=classic;html=1;rounded=0;entryX=0.5;entryY=1;entryDx=0;entryDy=0;dashed=1;exitX=0.5;exitY=0;exitDx=0;exitDy=0;" parent="1" source="Ra0qux8ydfXJeFuHZ6_D-39" target="Ra0qux8ydfXJeFuHZ6_D-34" edge="1">
          <mxGeometry width="50" height="50" relative="1" as="geometry">
            <mxPoint x="1170" y="1550" as="sourcePoint" />
            <mxPoint x="1220" y="1500" as="targetPoint" />
          </mxGeometry>
        </mxCell>
        <mxCell id="Ra0qux8ydfXJeFuHZ6_D-44" value="&lt;div&gt;Chest&lt;/div&gt;" style="swimlane;fontStyle=1;align=center;verticalAlign=top;childLayout=stackLayout;horizontal=1;startSize=26;horizontalStack=0;resizeParent=1;resizeParentMax=0;resizeLast=0;collapsible=1;marginBottom=0;whiteSpace=wrap;html=1;" parent="1" vertex="1">
          <mxGeometry x="930" y="1700" width="370" height="294" as="geometry" />
        </mxCell>
        <mxCell id="Ra0qux8ydfXJeFuHZ6_D-78" value="+ id: String (Unique)" style="text;strokeColor=none;fillColor=none;align=left;verticalAlign=top;spacingLeft=4;spacingRight=4;overflow=hidden;rotatable=0;points=[[0,0.5],[1,0.5]];portConstraint=eastwest;whiteSpace=wrap;html=1;" parent="Ra0qux8ydfXJeFuHZ6_D-44" vertex="1">
          <mxGeometry y="26" width="370" height="26" as="geometry" />
        </mxCell>
        <mxCell id="Ra0qux8ydfXJeFuHZ6_D-45" value="&lt;div&gt;+ capacity: Int&lt;/div&gt;" style="text;strokeColor=none;fillColor=none;align=left;verticalAlign=top;spacingLeft=4;spacingRight=4;overflow=hidden;rotatable=0;points=[[0,0.5],[1,0.5]];portConstraint=eastwest;whiteSpace=wrap;html=1;" parent="Ra0qux8ydfXJeFuHZ6_D-44" vertex="1">
          <mxGeometry y="52" width="370" height="26" as="geometry" />
        </mxCell>
        <mxCell id="Ra0qux8ydfXJeFuHZ6_D-82" value="&lt;div&gt;+ items: Vector[ItemStack]&lt;br&gt;&lt;/div&gt;" style="text;strokeColor=none;fillColor=none;align=left;verticalAlign=top;spacingLeft=4;spacingRight=4;overflow=hidden;rotatable=0;points=[[0,0.5],[1,0.5]];portConstraint=eastwest;whiteSpace=wrap;html=1;" parent="Ra0qux8ydfXJeFuHZ6_D-44" vertex="1">
          <mxGeometry y="78" width="370" height="26" as="geometry" />
        </mxCell>
        <mxCell id="Ra0qux8ydfXJeFuHZ6_D-46" value="" style="line;strokeWidth=1;fillColor=none;align=left;verticalAlign=middle;spacingTop=-1;spacingLeft=3;spacingRight=3;rotatable=0;labelPosition=right;points=[];portConstraint=eastwest;strokeColor=inherit;" parent="Ra0qux8ydfXJeFuHZ6_D-44" vertex="1">
          <mxGeometry y="104" width="370" height="8" as="geometry" />
        </mxCell>
        <mxCell id="Ra0qux8ydfXJeFuHZ6_D-47" value="&lt;div&gt;+&amp;nbsp; isEmpty: Boolean&lt;/div&gt;" style="text;strokeColor=none;fillColor=none;align=left;verticalAlign=top;spacingLeft=4;spacingRight=4;overflow=hidden;rotatable=0;points=[[0,0.5],[1,0.5]];portConstraint=eastwest;whiteSpace=wrap;html=1;" parent="Ra0qux8ydfXJeFuHZ6_D-44" vertex="1">
          <mxGeometry y="112" width="370" height="26" as="geometry" />
        </mxCell>
        <mxCell id="Ra0qux8ydfXJeFuHZ6_D-79" value="&lt;div&gt;+&amp;nbsp; capacity: Int&lt;br&gt;&lt;/div&gt;" style="text;strokeColor=none;fillColor=none;align=left;verticalAlign=top;spacingLeft=4;spacingRight=4;overflow=hidden;rotatable=0;points=[[0,0.5],[1,0.5]];portConstraint=eastwest;whiteSpace=wrap;html=1;" parent="Ra0qux8ydfXJeFuHZ6_D-44" vertex="1">
          <mxGeometry y="138" width="370" height="26" as="geometry" />
        </mxCell>
        <mxCell id="Ra0qux8ydfXJeFuHZ6_D-80" value="&lt;div&gt;+ apply(i: Int): Option[ItemStack]&lt;br&gt;&lt;/div&gt;" style="text;strokeColor=none;fillColor=none;align=left;verticalAlign=top;spacingLeft=4;spacingRight=4;overflow=hidden;rotatable=0;points=[[0,0.5],[1,0.5]];portConstraint=eastwest;whiteSpace=wrap;html=1;" parent="Ra0qux8ydfXJeFuHZ6_D-44" vertex="1">
          <mxGeometry y="164" width="370" height="26" as="geometry" />
        </mxCell>
        <mxCell id="Ra0qux8ydfXJeFuHZ6_D-81" value="&lt;div&gt;+ operator+(stack: ItemStack): (Chest,Option[ItemStack])&lt;br&gt;&lt;/div&gt;" style="text;strokeColor=none;fillColor=none;align=left;verticalAlign=top;spacingLeft=4;spacingRight=4;overflow=hidden;rotatable=0;points=[[0,0.5],[1,0.5]];portConstraint=eastwest;whiteSpace=wrap;html=1;" parent="Ra0qux8ydfXJeFuHZ6_D-44" vertex="1">
          <mxGeometry y="190" width="370" height="26" as="geometry" />
        </mxCell>
        <mxCell id="Ra0qux8ydfXJeFuHZ6_D-83" value="&lt;div&gt;+ swap(index: Int, stack:ItemStack): (Chest, Option[ItemStack])&lt;br&gt;&lt;/div&gt;" style="text;strokeColor=none;fillColor=none;align=left;verticalAlign=top;spacingLeft=4;spacingRight=4;overflow=hidden;rotatable=0;points=[[0,0.5],[1,0.5]];portConstraint=eastwest;whiteSpace=wrap;html=1;" parent="Ra0qux8ydfXJeFuHZ6_D-44" vertex="1">
          <mxGeometry y="216" width="370" height="26" as="geometry" />
        </mxCell>
        <mxCell id="Ra0qux8ydfXJeFuHZ6_D-84" value="+ contains(item: Item): Boolean" style="text;strokeColor=none;fillColor=none;align=left;verticalAlign=top;spacingLeft=4;spacingRight=4;overflow=hidden;rotatable=0;points=[[0,0.5],[1,0.5]];portConstraint=eastwest;whiteSpace=wrap;html=1;" parent="Ra0qux8ydfXJeFuHZ6_D-44" vertex="1">
          <mxGeometry y="242" width="370" height="26" as="geometry" />
        </mxCell>
        <mxCell id="Ra0qux8ydfXJeFuHZ6_D-85" value="+ count(item: Item): Int" style="text;strokeColor=none;fillColor=none;align=left;verticalAlign=top;spacingLeft=4;spacingRight=4;overflow=hidden;rotatable=0;points=[[0,0.5],[1,0.5]];portConstraint=eastwest;whiteSpace=wrap;html=1;" parent="Ra0qux8ydfXJeFuHZ6_D-44" vertex="1">
          <mxGeometry y="268" width="370" height="26" as="geometry" />
        </mxCell>
        <mxCell id="Ra0qux8ydfXJeFuHZ6_D-49" value="Consumable" style="swimlane;fontStyle=1;align=center;verticalAlign=top;childLayout=stackLayout;horizontal=1;startSize=26;horizontalStack=0;resizeParent=1;resizeParentMax=0;resizeLast=0;collapsible=1;marginBottom=0;whiteSpace=wrap;html=1;" parent="1" vertex="1">
          <mxGeometry x="1280" y="1576" width="160" height="86" as="geometry" />
        </mxCell>
        <mxCell id="Ra0qux8ydfXJeFuHZ6_D-50" value="+ effects: Vector[Effect]" style="text;strokeColor=none;fillColor=none;align=left;verticalAlign=top;spacingLeft=4;spacingRight=4;overflow=hidden;rotatable=0;points=[[0,0.5],[1,0.5]];portConstraint=eastwest;whiteSpace=wrap;html=1;" parent="Ra0qux8ydfXJeFuHZ6_D-49" vertex="1">
          <mxGeometry y="26" width="160" height="26" as="geometry" />
        </mxCell>
        <mxCell id="Ra0qux8ydfXJeFuHZ6_D-51" value="" style="line;strokeWidth=1;fillColor=none;align=left;verticalAlign=middle;spacingTop=-1;spacingLeft=3;spacingRight=3;rotatable=0;labelPosition=right;points=[];portConstraint=eastwest;strokeColor=inherit;" parent="Ra0qux8ydfXJeFuHZ6_D-49" vertex="1">
          <mxGeometry y="52" width="160" height="8" as="geometry" />
        </mxCell>
        <mxCell id="Ra0qux8ydfXJeFuHZ6_D-52" value="+ applyEffect: void" style="text;strokeColor=none;fillColor=none;align=left;verticalAlign=top;spacingLeft=4;spacingRight=4;overflow=hidden;rotatable=0;points=[[0,0.5],[1,0.5]];portConstraint=eastwest;whiteSpace=wrap;html=1;" parent="Ra0qux8ydfXJeFuHZ6_D-49" vertex="1">
          <mxGeometry y="60" width="160" height="26" as="geometry" />
        </mxCell>
        <mxCell id="Ra0qux8ydfXJeFuHZ6_D-54" value="" style="endArrow=classic;html=1;rounded=0;entryX=0.504;entryY=1;entryDx=0;entryDy=0;dashed=1;entryPerimeter=0;exitX=0.5;exitY=0;exitDx=0;exitDy=0;" parent="1" source="Ra0qux8ydfXJeFuHZ6_D-49" target="Ra0qux8ydfXJeFuHZ6_D-38" edge="1">
          <mxGeometry width="50" height="50" relative="1" as="geometry">
            <mxPoint x="1180" y="1586" as="sourcePoint" />
            <mxPoint x="1350" y="1492" as="targetPoint" />
          </mxGeometry>
        </mxCell>
        <mxCell id="Ra0qux8ydfXJeFuHZ6_D-55" value="Weapon" style="swimlane;fontStyle=1;align=center;verticalAlign=top;childLayout=stackLayout;horizontal=1;startSize=26;horizontalStack=0;resizeParent=1;resizeParentMax=0;resizeLast=0;collapsible=1;marginBottom=0;whiteSpace=wrap;html=1;" parent="1" vertex="1">
          <mxGeometry x="1480" y="1576" width="200" height="112" as="geometry" />
        </mxCell>
        <mxCell id="Ra0qux8ydfXJeFuHZ6_D-56" value="+ maxStackSize: Int = 1" style="text;strokeColor=none;fillColor=none;align=left;verticalAlign=top;spacingLeft=4;spacingRight=4;overflow=hidden;rotatable=0;points=[[0,0.5],[1,0.5]];portConstraint=eastwest;whiteSpace=wrap;html=1;" parent="Ra0qux8ydfXJeFuHZ6_D-55" vertex="1">
          <mxGeometry y="26" width="200" height="26" as="geometry" />
        </mxCell>
        <mxCell id="Ra0qux8ydfXJeFuHZ6_D-60" value="+ damage: Int" style="text;strokeColor=none;fillColor=none;align=left;verticalAlign=top;spacingLeft=4;spacingRight=4;overflow=hidden;rotatable=0;points=[[0,0.5],[1,0.5]];portConstraint=eastwest;whiteSpace=wrap;html=1;" parent="Ra0qux8ydfXJeFuHZ6_D-55" vertex="1">
          <mxGeometry y="52" width="200" height="26" as="geometry" />
        </mxCell>
        <mxCell id="Ra0qux8ydfXJeFuHZ6_D-57" value="" style="line;strokeWidth=1;fillColor=none;align=left;verticalAlign=middle;spacingTop=-1;spacingLeft=3;spacingRight=3;rotatable=0;labelPosition=right;points=[];portConstraint=eastwest;strokeColor=inherit;" parent="Ra0qux8ydfXJeFuHZ6_D-55" vertex="1">
          <mxGeometry y="78" width="200" height="8" as="geometry" />
        </mxCell>
        <mxCell id="Ra0qux8ydfXJeFuHZ6_D-58" value="&lt;div&gt;+ applyDamage(Entity): Entity&lt;/div&gt;&lt;div&gt;&lt;br&gt;&lt;/div&gt;" style="text;strokeColor=none;fillColor=none;align=left;verticalAlign=top;spacingLeft=4;spacingRight=4;overflow=hidden;rotatable=0;points=[[0,0.5],[1,0.5]];portConstraint=eastwest;whiteSpace=wrap;html=1;" parent="Ra0qux8ydfXJeFuHZ6_D-55" vertex="1">
          <mxGeometry y="86" width="200" height="26" as="geometry" />
        </mxCell>
        <mxCell id="Ra0qux8ydfXJeFuHZ6_D-59" value="" style="endArrow=classic;html=1;rounded=0;entryX=0.5;entryY=1.051;entryDx=0;entryDy=0;dashed=1;entryPerimeter=0;exitX=0.5;exitY=0;exitDx=0;exitDy=0;" parent="1" target="Ra0qux8ydfXJeFuHZ6_D-38" edge="1">
          <mxGeometry width="50" height="50" relative="1" as="geometry">
            <mxPoint x="1559" y="1576" as="sourcePoint" />
            <mxPoint x="1540" y="1482" as="targetPoint" />
          </mxGeometry>
        </mxCell>
        <mxCell id="Ra0qux8ydfXJeFuHZ6_D-61" value="Armor" style="swimlane;fontStyle=1;align=center;verticalAlign=top;childLayout=stackLayout;horizontal=1;startSize=26;horizontalStack=0;resizeParent=1;resizeParentMax=0;resizeLast=0;collapsible=1;marginBottom=0;whiteSpace=wrap;html=1;" parent="1" vertex="1">
          <mxGeometry x="1710" y="1576" width="200" height="112" as="geometry" />
        </mxCell>
        <mxCell id="Ra0qux8ydfXJeFuHZ6_D-62" value="+ maxStackSize: Int = 1" style="text;strokeColor=none;fillColor=none;align=left;verticalAlign=top;spacingLeft=4;spacingRight=4;overflow=hidden;rotatable=0;points=[[0,0.5],[1,0.5]];portConstraint=eastwest;whiteSpace=wrap;html=1;" parent="Ra0qux8ydfXJeFuHZ6_D-61" vertex="1">
          <mxGeometry y="26" width="200" height="26" as="geometry" />
        </mxCell>
        <mxCell id="Ra0qux8ydfXJeFuHZ6_D-63" value="+ defense: Int" style="text;strokeColor=none;fillColor=none;align=left;verticalAlign=top;spacingLeft=4;spacingRight=4;overflow=hidden;rotatable=0;points=[[0,0.5],[1,0.5]];portConstraint=eastwest;whiteSpace=wrap;html=1;" parent="Ra0qux8ydfXJeFuHZ6_D-61" vertex="1">
          <mxGeometry y="52" width="200" height="26" as="geometry" />
        </mxCell>
        <mxCell id="Ra0qux8ydfXJeFuHZ6_D-64" value="" style="line;strokeWidth=1;fillColor=none;align=left;verticalAlign=middle;spacingTop=-1;spacingLeft=3;spacingRight=3;rotatable=0;labelPosition=right;points=[];portConstraint=eastwest;strokeColor=inherit;" parent="Ra0qux8ydfXJeFuHZ6_D-61" vertex="1">
          <mxGeometry y="78" width="200" height="8" as="geometry" />
        </mxCell>
        <mxCell id="Ra0qux8ydfXJeFuHZ6_D-65" value="&lt;div&gt;+ applyDefense(Entity): Entity&lt;/div&gt;&lt;div&gt;&lt;br&gt;&lt;/div&gt;" style="text;strokeColor=none;fillColor=none;align=left;verticalAlign=top;spacingLeft=4;spacingRight=4;overflow=hidden;rotatable=0;points=[[0,0.5],[1,0.5]];portConstraint=eastwest;whiteSpace=wrap;html=1;" parent="Ra0qux8ydfXJeFuHZ6_D-61" vertex="1">
          <mxGeometry y="86" width="200" height="26" as="geometry" />
        </mxCell>
        <mxCell id="Ra0qux8ydfXJeFuHZ6_D-66" value="" style="endArrow=classic;html=1;rounded=0;entryX=1.008;entryY=0.872;entryDx=0;entryDy=0;dashed=1;entryPerimeter=0;exitX=0.5;exitY=0;exitDx=0;exitDy=0;" parent="1" source="Ra0qux8ydfXJeFuHZ6_D-61" target="Ra0qux8ydfXJeFuHZ6_D-35" edge="1">
          <mxGeometry width="50" height="50" relative="1" as="geometry">
            <mxPoint x="1799" y="1575" as="sourcePoint" />
            <mxPoint x="1580" y="1482" as="targetPoint" />
          </mxGeometry>
        </mxCell>
        <mxCell id="Ra0qux8ydfXJeFuHZ6_D-67" value="Equipment" style="swimlane;fontStyle=1;align=center;verticalAlign=top;childLayout=stackLayout;horizontal=1;startSize=26;horizontalStack=0;resizeParent=1;resizeParentMax=0;resizeLast=0;collapsible=1;marginBottom=0;whiteSpace=wrap;html=1;" parent="1" vertex="1">
          <mxGeometry x="1920" y="1576" width="200" height="112" as="geometry" />
        </mxCell>
        <mxCell id="Ra0qux8ydfXJeFuHZ6_D-68" value="+ maxStackSize: Int = 1" style="text;strokeColor=none;fillColor=none;align=left;verticalAlign=top;spacingLeft=4;spacingRight=4;overflow=hidden;rotatable=0;points=[[0,0.5],[1,0.5]];portConstraint=eastwest;whiteSpace=wrap;html=1;" parent="Ra0qux8ydfXJeFuHZ6_D-67" vertex="1">
          <mxGeometry y="26" width="200" height="26" as="geometry" />
        </mxCell>
        <mxCell id="Ra0qux8ydfXJeFuHZ6_D-69" value="+ effects: Vector[Effect]" style="text;strokeColor=none;fillColor=none;align=left;verticalAlign=top;spacingLeft=4;spacingRight=4;overflow=hidden;rotatable=0;points=[[0,0.5],[1,0.5]];portConstraint=eastwest;whiteSpace=wrap;html=1;" parent="Ra0qux8ydfXJeFuHZ6_D-67" vertex="1">
          <mxGeometry y="52" width="200" height="26" as="geometry" />
        </mxCell>
        <mxCell id="Ra0qux8ydfXJeFuHZ6_D-70" value="" style="line;strokeWidth=1;fillColor=none;align=left;verticalAlign=middle;spacingTop=-1;spacingLeft=3;spacingRight=3;rotatable=0;labelPosition=right;points=[];portConstraint=eastwest;strokeColor=inherit;" parent="Ra0qux8ydfXJeFuHZ6_D-67" vertex="1">
          <mxGeometry y="78" width="200" height="8" as="geometry" />
        </mxCell>
        <mxCell id="Ra0qux8ydfXJeFuHZ6_D-71" value="&lt;div&gt;+ applyEffects(Entity): Entity&lt;/div&gt;&lt;div&gt;&lt;br&gt;&lt;/div&gt;" style="text;strokeColor=none;fillColor=none;align=left;verticalAlign=top;spacingLeft=4;spacingRight=4;overflow=hidden;rotatable=0;points=[[0,0.5],[1,0.5]];portConstraint=eastwest;whiteSpace=wrap;html=1;" parent="Ra0qux8ydfXJeFuHZ6_D-67" vertex="1">
          <mxGeometry y="86" width="200" height="26" as="geometry" />
        </mxCell>
        <mxCell id="Ra0qux8ydfXJeFuHZ6_D-72" value="" style="endArrow=classic;html=1;rounded=0;entryX=1.004;entryY=0.744;entryDx=0;entryDy=0;dashed=1;entryPerimeter=0;exitX=0.5;exitY=0;exitDx=0;exitDy=0;" parent="1" target="Ra0qux8ydfXJeFuHZ6_D-35" edge="1">
          <mxGeometry width="50" height="50" relative="1" as="geometry">
            <mxPoint x="2019" y="1576" as="sourcePoint" />
            <mxPoint x="1630" y="1453" as="targetPoint" />
          </mxGeometry>
        </mxCell>
        <mxCell id="Ra0qux8ydfXJeFuHZ6_D-73" value="ItemStack" style="swimlane;fontStyle=1;align=center;verticalAlign=top;childLayout=stackLayout;horizontal=1;startSize=26;horizontalStack=0;resizeParent=1;resizeParentMax=0;resizeLast=0;collapsible=1;marginBottom=0;whiteSpace=wrap;html=1;" parent="1" vertex="1">
          <mxGeometry x="610" y="2020" width="400" height="112" as="geometry" />
        </mxCell>
        <mxCell id="Ra0qux8ydfXJeFuHZ6_D-74" value="+ item: Item" style="text;strokeColor=none;fillColor=none;align=left;verticalAlign=top;spacingLeft=4;spacingRight=4;overflow=hidden;rotatable=0;points=[[0,0.5],[1,0.5]];portConstraint=eastwest;whiteSpace=wrap;html=1;" parent="Ra0qux8ydfXJeFuHZ6_D-73" vertex="1">
          <mxGeometry y="26" width="400" height="26" as="geometry" />
        </mxCell>
        <mxCell id="Ra0qux8ydfXJeFuHZ6_D-77" value="+ quantity: Int (&amp;gt; 0 &amp;amp;&amp;amp; &amp;lt; item.maxStackSize)" style="text;strokeColor=none;fillColor=none;align=left;verticalAlign=top;spacingLeft=4;spacingRight=4;overflow=hidden;rotatable=0;points=[[0,0.5],[1,0.5]];portConstraint=eastwest;whiteSpace=wrap;html=1;" parent="Ra0qux8ydfXJeFuHZ6_D-73" vertex="1">
          <mxGeometry y="52" width="400" height="26" as="geometry" />
        </mxCell>
        <mxCell id="Ra0qux8ydfXJeFuHZ6_D-75" value="" style="line;strokeWidth=1;fillColor=none;align=left;verticalAlign=middle;spacingTop=-1;spacingLeft=3;spacingRight=3;rotatable=0;labelPosition=right;points=[];portConstraint=eastwest;strokeColor=inherit;" parent="Ra0qux8ydfXJeFuHZ6_D-73" vertex="1">
          <mxGeometry y="78" width="400" height="8" as="geometry" />
        </mxCell>
        <mxCell id="Ra0qux8ydfXJeFuHZ6_D-76" value="+ operator+(that:ItemStack): (ItemStack,Option[ItemStack])" style="text;strokeColor=none;fillColor=none;align=left;verticalAlign=top;spacingLeft=4;spacingRight=4;overflow=hidden;rotatable=0;points=[[0,0.5],[1,0.5]];portConstraint=eastwest;whiteSpace=wrap;html=1;" parent="Ra0qux8ydfXJeFuHZ6_D-73" vertex="1">
          <mxGeometry y="86" width="400" height="26" as="geometry" />
        </mxCell>
        <mxCell id="Ra0qux8ydfXJeFuHZ6_D-86" value="" style="endArrow=diamondThin;html=1;rounded=0;exitX=0.513;exitY=0;exitDx=0;exitDy=0;exitPerimeter=0;entryX=0;entryY=0.5;entryDx=0;entryDy=0;endFill=1;" parent="1" source="Ra0qux8ydfXJeFuHZ6_D-73" target="Ra0qux8ydfXJeFuHZ6_D-82" edge="1">
          <mxGeometry width="50" height="50" relative="1" as="geometry">
            <mxPoint x="1090" y="1990" as="sourcePoint" />
            <mxPoint x="1092" y="2073" as="targetPoint" />
          </mxGeometry>
        </mxCell>
        <mxCell id="Ra0qux8ydfXJeFuHZ6_D-87" value="EntityStats" style="swimlane;fontStyle=1;align=center;verticalAlign=top;childLayout=stackLayout;horizontal=1;startSize=26;horizontalStack=0;resizeParent=1;resizeParentMax=0;resizeLast=0;collapsible=1;marginBottom=0;whiteSpace=wrap;html=1;" parent="1" vertex="1">
          <mxGeometry x="2260" y="60" width="280" height="216" as="geometry" />
        </mxCell>
        <mxCell id="Ra0qux8ydfXJeFuHZ6_D-88" value="+ attack: Int" style="text;strokeColor=none;fillColor=none;align=left;verticalAlign=top;spacingLeft=4;spacingRight=4;overflow=hidden;rotatable=0;points=[[0,0.5],[1,0.5]];portConstraint=eastwest;whiteSpace=wrap;html=1;" parent="Ra0qux8ydfXJeFuHZ6_D-87" vertex="1">
          <mxGeometry y="26" width="280" height="26" as="geometry" />
        </mxCell>
        <mxCell id="3zTF_9KZKke-XSM9ItIY-1" value="+ defense: Int" style="text;strokeColor=none;fillColor=none;align=left;verticalAlign=top;spacingLeft=4;spacingRight=4;overflow=hidden;rotatable=0;points=[[0,0.5],[1,0.5]];portConstraint=eastwest;whiteSpace=wrap;html=1;" parent="Ra0qux8ydfXJeFuHZ6_D-87" vertex="1">
          <mxGeometry y="52" width="280" height="26" as="geometry" />
        </mxCell>
        <mxCell id="3zTF_9KZKke-XSM9ItIY-2" value="+ speed: Double" style="text;strokeColor=none;fillColor=none;align=left;verticalAlign=top;spacingLeft=4;spacingRight=4;overflow=hidden;rotatable=0;points=[[0,0.5],[1,0.5]];portConstraint=eastwest;whiteSpace=wrap;html=1;" parent="Ra0qux8ydfXJeFuHZ6_D-87" vertex="1">
          <mxGeometry y="78" width="280" height="26" as="geometry" />
        </mxCell>
        <mxCell id="3zTF_9KZKke-XSM9ItIY-3" value="+ maxHP: Double" style="text;strokeColor=none;fillColor=none;align=left;verticalAlign=top;spacingLeft=4;spacingRight=4;overflow=hidden;rotatable=0;points=[[0,0.5],[1,0.5]];portConstraint=eastwest;whiteSpace=wrap;html=1;" parent="Ra0qux8ydfXJeFuHZ6_D-87" vertex="1">
          <mxGeometry y="104" width="280" height="26" as="geometry" />
        </mxCell>
        <mxCell id="3zTF_9KZKke-XSM9ItIY-4" value="+ regeneration: Double" style="text;strokeColor=none;fillColor=none;align=left;verticalAlign=top;spacingLeft=4;spacingRight=4;overflow=hidden;rotatable=0;points=[[0,0.5],[1,0.5]];portConstraint=eastwest;whiteSpace=wrap;html=1;" parent="Ra0qux8ydfXJeFuHZ6_D-87" vertex="1">
          <mxGeometry y="130" width="280" height="26" as="geometry" />
        </mxCell>
        <mxCell id="Ra0qux8ydfXJeFuHZ6_D-89" value="" style="line;strokeWidth=1;fillColor=none;align=left;verticalAlign=middle;spacingTop=-1;spacingLeft=3;spacingRight=3;rotatable=0;labelPosition=right;points=[];portConstraint=eastwest;strokeColor=inherit;" parent="Ra0qux8ydfXJeFuHZ6_D-87" vertex="1">
          <mxGeometry y="156" width="280" height="8" as="geometry" />
        </mxCell>
        <mxCell id="Ra0qux8ydfXJeFuHZ6_D-90" value="&lt;div&gt;+ applyEffect(effect: Effect): EntityStats&lt;/div&gt;" style="text;strokeColor=none;fillColor=none;align=left;verticalAlign=top;spacingLeft=4;spacingRight=4;overflow=hidden;rotatable=0;points=[[0,0.5],[1,0.5]];portConstraint=eastwest;whiteSpace=wrap;html=1;" parent="Ra0qux8ydfXJeFuHZ6_D-87" vertex="1">
          <mxGeometry y="164" width="280" height="26" as="geometry" />
        </mxCell>
        <mxCell id="3zTF_9KZKke-XSM9ItIY-5" value="&lt;div&gt;+ applyEffect(effect: Effect*): EntityStats&lt;/div&gt;" style="text;strokeColor=none;fillColor=none;align=left;verticalAlign=top;spacingLeft=4;spacingRight=4;overflow=hidden;rotatable=0;points=[[0,0.5],[1,0.5]];portConstraint=eastwest;whiteSpace=wrap;html=1;" parent="Ra0qux8ydfXJeFuHZ6_D-87" vertex="1">
          <mxGeometry y="190" width="280" height="26" as="geometry" />
        </mxCell>
        <mxCell id="Ra0qux8ydfXJeFuHZ6_D-91" value="" style="endArrow=classic;html=1;rounded=0;dashed=1;exitX=0.5;exitY=0;exitDx=0;exitDy=0;" parent="1" source="Ra0qux8ydfXJeFuHZ6_D-44" edge="1">
          <mxGeometry width="50" height="50" relative="1" as="geometry">
            <mxPoint x="1000" y="1714" as="sourcePoint" />
            <mxPoint x="1170" y="1620" as="targetPoint" />
          </mxGeometry>
        </mxCell>
        <mxCell id="3zTF_9KZKke-XSM9ItIY-6" value="&lt;div&gt;«interface»&lt;br&gt;&lt;/div&gt;&lt;div&gt;Entity&lt;/div&gt;" style="swimlane;fontStyle=1;align=center;verticalAlign=top;childLayout=stackLayout;horizontal=1;startSize=40;horizontalStack=0;resizeParent=1;resizeParentMax=0;resizeLast=0;collapsible=1;marginBottom=0;whiteSpace=wrap;html=1;" parent="1" vertex="1">
          <mxGeometry x="2310" y="340" width="340" height="412" as="geometry" />
        </mxCell>
        <mxCell id="3zTF_9KZKke-XSM9ItIY-7" value="+ name: String" style="text;strokeColor=none;fillColor=none;align=left;verticalAlign=top;spacingLeft=4;spacingRight=4;overflow=hidden;rotatable=0;points=[[0,0.5],[1,0.5]];portConstraint=eastwest;whiteSpace=wrap;html=1;" parent="3zTF_9KZKke-XSM9ItIY-6" vertex="1">
          <mxGeometry y="40" width="340" height="26" as="geometry" />
        </mxCell>
        <mxCell id="3zTF_9KZKke-XSM9ItIY-10" value="+ ID: String" style="text;strokeColor=none;fillColor=none;align=left;verticalAlign=top;spacingLeft=4;spacingRight=4;overflow=hidden;rotatable=0;points=[[0,0.5],[1,0.5]];portConstraint=eastwest;whiteSpace=wrap;html=1;" parent="3zTF_9KZKke-XSM9ItIY-6" vertex="1">
          <mxGeometry y="66" width="340" height="26" as="geometry" />
        </mxCell>
        <mxCell id="3zTF_9KZKke-XSM9ItIY-11" value="+ baseStats: EntityStats" style="text;strokeColor=none;fillColor=none;align=left;verticalAlign=top;spacingLeft=4;spacingRight=4;overflow=hidden;rotatable=0;points=[[0,0.5],[1,0.5]];portConstraint=eastwest;whiteSpace=wrap;html=1;" parent="3zTF_9KZKke-XSM9ItIY-6" vertex="1">
          <mxGeometry y="92" width="340" height="26" as="geometry" />
        </mxCell>
        <mxCell id="3zTF_9KZKke-XSM9ItIY-18" value="+ currentEffects: Vector[EffectDuration]" style="text;strokeColor=none;fillColor=none;align=left;verticalAlign=top;spacingLeft=4;spacingRight=4;overflow=hidden;rotatable=0;points=[[0,0.5],[1,0.5]];portConstraint=eastwest;whiteSpace=wrap;html=1;" parent="3zTF_9KZKke-XSM9ItIY-6" vertex="1">
          <mxGeometry y="118" width="340" height="26" as="geometry" />
        </mxCell>
        <mxCell id="3zTF_9KZKke-XSM9ItIY-29" value="+ currentHP: Int" style="text;strokeColor=none;fillColor=none;align=left;verticalAlign=top;spacingLeft=4;spacingRight=4;overflow=hidden;rotatable=0;points=[[0,0.5],[1,0.5]];portConstraint=eastwest;whiteSpace=wrap;html=1;" parent="3zTF_9KZKke-XSM9ItIY-6" vertex="1">
          <mxGeometry y="144" width="340" height="26" as="geometry" />
        </mxCell>
        <mxCell id="3zTF_9KZKke-XSM9ItIY-28" value="&lt;div&gt;+ position: Position&lt;/div&gt;" style="text;strokeColor=none;fillColor=none;align=left;verticalAlign=top;spacingLeft=4;spacingRight=4;overflow=hidden;rotatable=0;points=[[0,0.5],[1,0.5]];portConstraint=eastwest;whiteSpace=wrap;html=1;" parent="3zTF_9KZKke-XSM9ItIY-6" vertex="1">
          <mxGeometry y="170" width="340" height="26" as="geometry" />
        </mxCell>
        <mxCell id="3zTF_9KZKke-XSM9ItIY-8" value="" style="line;strokeWidth=1;fillColor=none;align=left;verticalAlign=middle;spacingTop=-1;spacingLeft=3;spacingRight=3;rotatable=0;labelPosition=right;points=[];portConstraint=eastwest;strokeColor=inherit;" parent="3zTF_9KZKke-XSM9ItIY-6" vertex="1">
          <mxGeometry y="196" width="340" height="8" as="geometry" />
        </mxCell>
        <mxCell id="3zTF_9KZKke-XSM9ItIY-9" value="+ baseStats: EntityStats" style="text;strokeColor=none;fillColor=none;align=left;verticalAlign=top;spacingLeft=4;spacingRight=4;overflow=hidden;rotatable=0;points=[[0,0.5],[1,0.5]];portConstraint=eastwest;whiteSpace=wrap;html=1;" parent="3zTF_9KZKke-XSM9ItIY-6" vertex="1">
          <mxGeometry y="204" width="340" height="26" as="geometry" />
        </mxCell>
        <mxCell id="3zTF_9KZKke-XSM9ItIY-19" value="+ heal(hp: Int): Entity" style="text;strokeColor=none;fillColor=none;align=left;verticalAlign=top;spacingLeft=4;spacingRight=4;overflow=hidden;rotatable=0;points=[[0,0.5],[1,0.5]];portConstraint=eastwest;whiteSpace=wrap;html=1;" parent="3zTF_9KZKke-XSM9ItIY-6" vertex="1">
          <mxGeometry y="230" width="340" height="26" as="geometry" />
        </mxCell>
        <mxCell id="3zTF_9KZKke-XSM9ItIY-20" value="+ takeDamage(hp: Int): Option[Entity]" style="text;strokeColor=none;fillColor=none;align=left;verticalAlign=top;spacingLeft=4;spacingRight=4;overflow=hidden;rotatable=0;points=[[0,0.5],[1,0.5]];portConstraint=eastwest;whiteSpace=wrap;html=1;" parent="3zTF_9KZKke-XSM9ItIY-6" vertex="1">
          <mxGeometry y="256" width="340" height="26" as="geometry" />
        </mxCell>
        <mxCell id="3zTF_9KZKke-XSM9ItIY-21" value="+ addEffect(effect: EffectDuration): Entity" style="text;strokeColor=none;fillColor=none;align=left;verticalAlign=top;spacingLeft=4;spacingRight=4;overflow=hidden;rotatable=0;points=[[0,0.5],[1,0.5]];portConstraint=eastwest;whiteSpace=wrap;html=1;" parent="3zTF_9KZKke-XSM9ItIY-6" vertex="1">
          <mxGeometry y="282" width="340" height="26" as="geometry" />
        </mxCell>
        <mxCell id="3zTF_9KZKke-XSM9ItIY-22" value="+ removeEffects(p: Effect =&amp;gt; Boolean): Entity" style="text;strokeColor=none;fillColor=none;align=left;verticalAlign=top;spacingLeft=4;spacingRight=4;overflow=hidden;rotatable=0;points=[[0,0.5],[1,0.5]];portConstraint=eastwest;whiteSpace=wrap;html=1;" parent="3zTF_9KZKke-XSM9ItIY-6" vertex="1">
          <mxGeometry y="308" width="340" height="26" as="geometry" />
        </mxCell>
        <mxCell id="3zTF_9KZKke-XSM9ItIY-23" value="+ applyEffects: EntityStats" style="text;strokeColor=none;fillColor=none;align=left;verticalAlign=top;spacingLeft=4;spacingRight=4;overflow=hidden;rotatable=0;points=[[0,0.5],[1,0.5]];portConstraint=eastwest;whiteSpace=wrap;html=1;" parent="3zTF_9KZKke-XSM9ItIY-6" vertex="1">
          <mxGeometry y="334" width="340" height="26" as="geometry" />
        </mxCell>
        <mxCell id="3zTF_9KZKke-XSM9ItIY-24" value="+ moveTo(position: Position): Entity" style="text;strokeColor=none;fillColor=none;align=left;verticalAlign=top;spacingLeft=4;spacingRight=4;overflow=hidden;rotatable=0;points=[[0,0.5],[1,0.5]];portConstraint=eastwest;whiteSpace=wrap;html=1;" parent="3zTF_9KZKke-XSM9ItIY-6" vertex="1">
          <mxGeometry y="360" width="340" height="26" as="geometry" />
        </mxCell>
        <mxCell id="3zTF_9KZKke-XSM9ItIY-25" value="+ tick: Option[Entity]" style="text;strokeColor=none;fillColor=none;align=left;verticalAlign=top;spacingLeft=4;spacingRight=4;overflow=hidden;rotatable=0;points=[[0,0.5],[1,0.5]];portConstraint=eastwest;whiteSpace=wrap;html=1;" parent="3zTF_9KZKke-XSM9ItIY-6" vertex="1">
          <mxGeometry y="386" width="340" height="26" as="geometry" />
        </mxCell>
        <mxCell id="3zTF_9KZKke-XSM9ItIY-12" value="EffectDuration" style="swimlane;fontStyle=1;align=center;verticalAlign=top;childLayout=stackLayout;horizontal=1;startSize=26;horizontalStack=0;resizeParent=1;resizeParentMax=0;resizeLast=0;collapsible=1;marginBottom=0;whiteSpace=wrap;html=1;" parent="1" vertex="1">
          <mxGeometry x="2030" y="106" width="160" height="138" as="geometry" />
        </mxCell>
        <mxCell id="3zTF_9KZKke-XSM9ItIY-16" value="+ effect: Effect" style="text;strokeColor=none;fillColor=none;align=left;verticalAlign=top;spacingLeft=4;spacingRight=4;overflow=hidden;rotatable=0;points=[[0,0.5],[1,0.5]];portConstraint=eastwest;whiteSpace=wrap;html=1;" parent="3zTF_9KZKke-XSM9ItIY-12" vertex="1">
          <mxGeometry y="26" width="160" height="26" as="geometry" />
        </mxCell>
        <mxCell id="3zTF_9KZKke-XSM9ItIY-13" value="+ duration: Duration" style="text;strokeColor=none;fillColor=none;align=left;verticalAlign=top;spacingLeft=4;spacingRight=4;overflow=hidden;rotatable=0;points=[[0,0.5],[1,0.5]];portConstraint=eastwest;whiteSpace=wrap;html=1;" parent="3zTF_9KZKke-XSM9ItIY-12" vertex="1">
          <mxGeometry y="52" width="160" height="26" as="geometry" />
        </mxCell>
        <mxCell id="3zTF_9KZKke-XSM9ItIY-14" value="" style="line;strokeWidth=1;fillColor=none;align=left;verticalAlign=middle;spacingTop=-1;spacingLeft=3;spacingRight=3;rotatable=0;labelPosition=right;points=[];portConstraint=eastwest;strokeColor=inherit;" parent="3zTF_9KZKke-XSM9ItIY-12" vertex="1">
          <mxGeometry y="78" width="160" height="8" as="geometry" />
        </mxCell>
        <mxCell id="3zTF_9KZKke-XSM9ItIY-15" value="+ getEffect: Effect" style="text;strokeColor=none;fillColor=none;align=left;verticalAlign=top;spacingLeft=4;spacingRight=4;overflow=hidden;rotatable=0;points=[[0,0.5],[1,0.5]];portConstraint=eastwest;whiteSpace=wrap;html=1;" parent="3zTF_9KZKke-XSM9ItIY-12" vertex="1">
          <mxGeometry y="86" width="160" height="26" as="geometry" />
        </mxCell>
        <mxCell id="3zTF_9KZKke-XSM9ItIY-17" value="&lt;div&gt;+ getDuration: Duration&lt;/div&gt;&lt;div&gt;&lt;br&gt;&lt;/div&gt;" style="text;strokeColor=none;fillColor=none;align=left;verticalAlign=top;spacingLeft=4;spacingRight=4;overflow=hidden;rotatable=0;points=[[0,0.5],[1,0.5]];portConstraint=eastwest;whiteSpace=wrap;html=1;" parent="3zTF_9KZKke-XSM9ItIY-12" vertex="1">
          <mxGeometry y="112" width="160" height="26" as="geometry" />
        </mxCell>
        <mxCell id="3zTF_9KZKke-XSM9ItIY-26" value="Mob" style="html=1;whiteSpace=wrap;" parent="1" vertex="1">
          <mxGeometry x="2110" y="730" width="110" height="50" as="geometry" />
        </mxCell>
        <mxCell id="3zTF_9KZKke-XSM9ItIY-27" value="" style="endArrow=classic;html=1;rounded=0;entryX=0;entryY=0.5;entryDx=0;entryDy=0;dashed=1;exitX=0.5;exitY=0;exitDx=0;exitDy=0;" parent="1" target="3zTF_9KZKke-XSM9ItIY-22" edge="1">
          <mxGeometry width="50" height="50" relative="1" as="geometry">
            <mxPoint x="2169" y="730" as="sourcePoint" />
            <mxPoint x="2150" y="636" as="targetPoint" />
          </mxGeometry>
        </mxCell>
        <mxCell id="3zTF_9KZKke-XSM9ItIY-30" value="Player" style="swimlane;fontStyle=1;align=center;verticalAlign=top;childLayout=stackLayout;horizontal=1;startSize=26;horizontalStack=0;resizeParent=1;resizeParentMax=0;resizeLast=0;collapsible=1;marginBottom=0;whiteSpace=wrap;html=1;" parent="1" vertex="1">
          <mxGeometry x="2430" y="860" width="260" height="320" as="geometry" />
        </mxCell>
        <mxCell id="3zTF_9KZKke-XSM9ItIY-31" value="+capacity: Int" style="text;strokeColor=none;fillColor=none;align=left;verticalAlign=top;spacingLeft=4;spacingRight=4;overflow=hidden;rotatable=0;points=[[0,0.5],[1,0.5]];portConstraint=eastwest;whiteSpace=wrap;html=1;" parent="3zTF_9KZKke-XSM9ItIY-30" vertex="1">
          <mxGeometry y="26" width="260" height="26" as="geometry" />
        </mxCell>
        <mxCell id="3zTF_9KZKke-XSM9ItIY-35" value="+inventory: Chest" style="text;strokeColor=none;fillColor=none;align=left;verticalAlign=top;spacingLeft=4;spacingRight=4;overflow=hidden;rotatable=0;points=[[0,0.5],[1,0.5]];portConstraint=eastwest;whiteSpace=wrap;html=1;" parent="3zTF_9KZKke-XSM9ItIY-30" vertex="1">
          <mxGeometry y="52" width="260" height="26" as="geometry" />
        </mxCell>
        <mxCell id="3zTF_9KZKke-XSM9ItIY-36" value="+ equipmentSlots: Chest" style="text;strokeColor=none;fillColor=none;align=left;verticalAlign=top;spacingLeft=4;spacingRight=4;overflow=hidden;rotatable=0;points=[[0,0.5],[1,0.5]];portConstraint=eastwest;whiteSpace=wrap;html=1;" parent="3zTF_9KZKke-XSM9ItIY-30" vertex="1">
          <mxGeometry y="78" width="260" height="26" as="geometry" />
        </mxCell>
        <mxCell id="3zTF_9KZKke-XSM9ItIY-41" value="+ weapon: Weapon" style="text;strokeColor=none;fillColor=none;align=left;verticalAlign=top;spacingLeft=4;spacingRight=4;overflow=hidden;rotatable=0;points=[[0,0.5],[1,0.5]];portConstraint=eastwest;whiteSpace=wrap;html=1;" parent="3zTF_9KZKke-XSM9ItIY-30" vertex="1">
          <mxGeometry y="104" width="260" height="26" as="geometry" />
        </mxCell>
        <mxCell id="3zTF_9KZKke-XSM9ItIY-42" value="+ armor: Armor" style="text;strokeColor=none;fillColor=none;align=left;verticalAlign=top;spacingLeft=4;spacingRight=4;overflow=hidden;rotatable=0;points=[[0,0.5],[1,0.5]];portConstraint=eastwest;whiteSpace=wrap;html=1;" parent="3zTF_9KZKke-XSM9ItIY-30" vertex="1">
          <mxGeometry y="130" width="260" height="26" as="geometry" />
        </mxCell>
        <mxCell id="3zTF_9KZKke-XSM9ItIY-43" value="+ onCursor: ItemStack" style="text;strokeColor=none;fillColor=none;align=left;verticalAlign=top;spacingLeft=4;spacingRight=4;overflow=hidden;rotatable=0;points=[[0,0.5],[1,0.5]];portConstraint=eastwest;whiteSpace=wrap;html=1;" parent="3zTF_9KZKke-XSM9ItIY-30" vertex="1">
          <mxGeometry y="156" width="260" height="26" as="geometry" />
        </mxCell>
        <mxCell id="3zTF_9KZKke-XSM9ItIY-37" value="&lt;div&gt;+ respawnPosition: Position&lt;/div&gt;" style="text;strokeColor=none;fillColor=none;align=left;verticalAlign=top;spacingLeft=4;spacingRight=4;overflow=hidden;rotatable=0;points=[[0,0.5],[1,0.5]];portConstraint=eastwest;whiteSpace=wrap;html=1;" parent="3zTF_9KZKke-XSM9ItIY-30" vertex="1">
          <mxGeometry y="182" width="260" height="26" as="geometry" />
        </mxCell>
        <mxCell id="3zTF_9KZKke-XSM9ItIY-38" value="&lt;div&gt;+ reachingDistance: Double&lt;br&gt;&lt;/div&gt;" style="text;strokeColor=none;fillColor=none;align=left;verticalAlign=top;spacingLeft=4;spacingRight=4;overflow=hidden;rotatable=0;points=[[0,0.5],[1,0.5]];portConstraint=eastwest;whiteSpace=wrap;html=1;" parent="3zTF_9KZKke-XSM9ItIY-30" vertex="1">
          <mxGeometry y="208" width="260" height="26" as="geometry" />
        </mxCell>
        <mxCell id="3zTF_9KZKke-XSM9ItIY-32" value="" style="line;strokeWidth=1;fillColor=none;align=left;verticalAlign=middle;spacingTop=-1;spacingLeft=3;spacingRight=3;rotatable=0;labelPosition=right;points=[];portConstraint=eastwest;strokeColor=inherit;" parent="3zTF_9KZKke-XSM9ItIY-30" vertex="1">
          <mxGeometry y="234" width="260" height="8" as="geometry" />
        </mxCell>
        <mxCell id="3zTF_9KZKke-XSM9ItIY-33" value="+ applyEffects: EntityStats" style="text;strokeColor=none;fillColor=none;align=left;verticalAlign=top;spacingLeft=4;spacingRight=4;overflow=hidden;rotatable=0;points=[[0,0.5],[1,0.5]];portConstraint=eastwest;whiteSpace=wrap;html=1;" parent="3zTF_9KZKke-XSM9ItIY-30" vertex="1">
          <mxGeometry y="242" width="260" height="26" as="geometry" />
        </mxCell>
        <mxCell id="3zTF_9KZKke-XSM9ItIY-39" value="+ removeEffects: EntityStats" style="text;strokeColor=none;fillColor=none;align=left;verticalAlign=top;spacingLeft=4;spacingRight=4;overflow=hidden;rotatable=0;points=[[0,0.5],[1,0.5]];portConstraint=eastwest;whiteSpace=wrap;html=1;" parent="3zTF_9KZKke-XSM9ItIY-30" vertex="1">
          <mxGeometry y="268" width="260" height="26" as="geometry" />
        </mxCell>
        <mxCell id="3zTF_9KZKke-XSM9ItIY-40" value="+ removeEffects: EntityStats" style="text;strokeColor=none;fillColor=none;align=left;verticalAlign=top;spacingLeft=4;spacingRight=4;overflow=hidden;rotatable=0;points=[[0,0.5],[1,0.5]];portConstraint=eastwest;whiteSpace=wrap;html=1;" parent="3zTF_9KZKke-XSM9ItIY-30" vertex="1">
          <mxGeometry y="294" width="260" height="26" as="geometry" />
        </mxCell>
        <mxCell id="3zTF_9KZKke-XSM9ItIY-34" value="" style="endArrow=classic;html=1;rounded=0;entryX=0.453;entryY=1.024;entryDx=0;entryDy=0;dashed=1;exitX=0.5;exitY=0;exitDx=0;exitDy=0;entryPerimeter=0;" parent="1" source="3zTF_9KZKke-XSM9ItIY-30" target="3zTF_9KZKke-XSM9ItIY-25" edge="1">
          <mxGeometry width="50" height="50" relative="1" as="geometry">
            <mxPoint x="2360" y="839" as="sourcePoint" />
            <mxPoint x="2501" y="770" as="targetPoint" />
          </mxGeometry>
        </mxCell>
        <mxCell id="3zTF_9KZKke-XSM9ItIY-44" value="Position" style="swimlane;fontStyle=1;align=center;verticalAlign=top;childLayout=stackLayout;horizontal=1;startSize=26;horizontalStack=0;resizeParent=1;resizeParentMax=0;resizeLast=0;collapsible=1;marginBottom=0;whiteSpace=wrap;html=1;" parent="1" vertex="1">
          <mxGeometry x="300" y="190" width="160" height="78" as="geometry" />
        </mxCell>
        <mxCell id="3zTF_9KZKke-XSM9ItIY-45" value="&lt;div&gt;+x: Double&lt;/div&gt;" style="text;strokeColor=none;fillColor=none;align=left;verticalAlign=top;spacingLeft=4;spacingRight=4;overflow=hidden;rotatable=0;points=[[0,0.5],[1,0.5]];portConstraint=eastwest;whiteSpace=wrap;html=1;" parent="3zTF_9KZKke-XSM9ItIY-44" vertex="1">
          <mxGeometry y="26" width="160" height="26" as="geometry" />
        </mxCell>
        <mxCell id="3zTF_9KZKke-XSM9ItIY-48" value="&lt;div&gt;+y: Double&lt;/div&gt;" style="text;strokeColor=none;fillColor=none;align=left;verticalAlign=top;spacingLeft=4;spacingRight=4;overflow=hidden;rotatable=0;points=[[0,0.5],[1,0.5]];portConstraint=eastwest;whiteSpace=wrap;html=1;" parent="3zTF_9KZKke-XSM9ItIY-44" vertex="1">
          <mxGeometry y="52" width="160" height="26" as="geometry" />
        </mxCell>
        <mxCell id="3zTF_9KZKke-XSM9ItIY-53" value="&lt;div&gt;«interface»&lt;/div&gt;&lt;div&gt;&lt;b&gt;Duration&lt;/b&gt;&lt;/div&gt;" style="html=1;whiteSpace=wrap;" parent="1" vertex="1">
          <mxGeometry x="380" y="424" width="110" height="50" as="geometry" />
        </mxCell>
        <mxCell id="3zTF_9KZKke-XSM9ItIY-54" value="TicksLeft" style="swimlane;fontStyle=1;align=center;verticalAlign=top;childLayout=stackLayout;horizontal=1;startSize=26;horizontalStack=0;resizeParent=1;resizeParentMax=0;resizeLast=0;collapsible=1;marginBottom=0;whiteSpace=wrap;html=1;" parent="1" vertex="1">
          <mxGeometry x="150" y="560" width="250" height="86" as="geometry" />
        </mxCell>
        <mxCell id="3zTF_9KZKke-XSM9ItIY-55" value="+ ticks: Int" style="text;strokeColor=none;fillColor=none;align=left;verticalAlign=top;spacingLeft=4;spacingRight=4;overflow=hidden;rotatable=0;points=[[0,0.5],[1,0.5]];portConstraint=eastwest;whiteSpace=wrap;html=1;" parent="3zTF_9KZKke-XSM9ItIY-54" vertex="1">
          <mxGeometry y="26" width="250" height="26" as="geometry" />
        </mxCell>
        <mxCell id="3zTF_9KZKke-XSM9ItIY-56" value="" style="line;strokeWidth=1;fillColor=none;align=left;verticalAlign=middle;spacingTop=-1;spacingLeft=3;spacingRight=3;rotatable=0;labelPosition=right;points=[];portConstraint=eastwest;strokeColor=inherit;" parent="3zTF_9KZKke-XSM9ItIY-54" vertex="1">
          <mxGeometry y="52" width="250" height="8" as="geometry" />
        </mxCell>
        <mxCell id="3zTF_9KZKke-XSM9ItIY-57" value="+ getRemainingTicks: Option[Duration]" style="text;strokeColor=none;fillColor=none;align=left;verticalAlign=top;spacingLeft=4;spacingRight=4;overflow=hidden;rotatable=0;points=[[0,0.5],[1,0.5]];portConstraint=eastwest;whiteSpace=wrap;html=1;" parent="3zTF_9KZKke-XSM9ItIY-54" vertex="1">
          <mxGeometry y="60" width="250" height="26" as="geometry" />
        </mxCell>
        <mxCell id="3zTF_9KZKke-XSM9ItIY-66" value="" style="endArrow=classic;html=1;rounded=0;entryX=0.5;entryY=1;entryDx=0;entryDy=0;dashed=1;exitX=0.5;exitY=0;exitDx=0;exitDy=0;" parent="1" source="3zTF_9KZKke-XSM9ItIY-54" target="3zTF_9KZKke-XSM9ItIY-53" edge="1">
          <mxGeometry width="50" height="50" relative="1" as="geometry">
            <mxPoint x="239" y="560" as="sourcePoint" />
            <mxPoint x="380" y="491" as="targetPoint" />
          </mxGeometry>
        </mxCell>
        <mxCell id="3zTF_9KZKke-XSM9ItIY-67" value="&lt;b&gt;TillDeath&lt;/b&gt;" style="html=1;whiteSpace=wrap;" parent="1" vertex="1">
          <mxGeometry x="430" y="581" width="110" height="50" as="geometry" />
        </mxCell>
        <mxCell id="3zTF_9KZKke-XSM9ItIY-68" value="" style="endArrow=classic;html=1;rounded=0;entryX=0.5;entryY=1;entryDx=0;entryDy=0;dashed=1;exitX=0.5;exitY=0;exitDx=0;exitDy=0;" parent="1" source="3zTF_9KZKke-XSM9ItIY-67" target="3zTF_9KZKke-XSM9ItIY-53" edge="1">
          <mxGeometry width="50" height="50" relative="1" as="geometry">
            <mxPoint x="285" y="570" as="sourcePoint" />
            <mxPoint x="445" y="484" as="targetPoint" />
          </mxGeometry>
        </mxCell>
        <mxCell id="3zTF_9KZKke-XSM9ItIY-69" value="&lt;b&gt;Permanent&lt;/b&gt;" style="html=1;whiteSpace=wrap;" parent="1" vertex="1">
          <mxGeometry x="560" y="581" width="110" height="50" as="geometry" />
        </mxCell>
        <mxCell id="3zTF_9KZKke-XSM9ItIY-70" value="" style="endArrow=classic;html=1;rounded=0;entryX=0.5;entryY=1;entryDx=0;entryDy=0;dashed=1;exitX=0.5;exitY=0;exitDx=0;exitDy=0;" parent="1" target="3zTF_9KZKke-XSM9ItIY-53" edge="1">
          <mxGeometry width="50" height="50" relative="1" as="geometry">
            <mxPoint x="610" y="581" as="sourcePoint" />
            <mxPoint x="560" y="474" as="targetPoint" />
          </mxGeometry>
        </mxCell>
        <mxCell id="3zTF_9KZKke-XSM9ItIY-80" value="" style="endArrow=classic;html=1;rounded=0;entryX=0.463;entryY=1.041;entryDx=0;entryDy=0;dashed=1;exitX=0.5;exitY=0;exitDx=0;exitDy=0;entryPerimeter=0;" parent="1" source="3zTF_9KZKke-XSM9ItIY-86" target="3zTF_9KZKke-XSM9ItIY-84" edge="1">
          <mxGeometry width="50" height="50" relative="1" as="geometry">
            <mxPoint x="365" y="956" as="sourcePoint" />
            <mxPoint x="475.0000000000002" y="832" as="targetPoint" />
          </mxGeometry>
        </mxCell>
        <mxCell id="3zTF_9KZKke-XSM9ItIY-81" value="&lt;span style=&quot;font-weight: normal;&quot;&gt;«interface»&lt;/span&gt;&lt;br&gt;&lt;b&gt;Effect&lt;/b&gt;" style="swimlane;fontStyle=1;align=center;verticalAlign=top;childLayout=stackLayout;horizontal=1;startSize=40;horizontalStack=0;resizeParent=1;resizeParentMax=0;resizeLast=0;collapsible=1;marginBottom=0;whiteSpace=wrap;html=1;" parent="1" vertex="1">
          <mxGeometry x="330" y="740" width="260" height="70" as="geometry" />
        </mxCell>
        <mxCell id="3zTF_9KZKke-XSM9ItIY-84" value="+ apply(stats: EntityStats): EntityStats" style="text;strokeColor=none;fillColor=none;align=left;verticalAlign=top;spacingLeft=4;spacingRight=4;overflow=hidden;rotatable=0;points=[[0,0.5],[1,0.5]];portConstraint=eastwest;whiteSpace=wrap;html=1;" parent="3zTF_9KZKke-XSM9ItIY-81" vertex="1">
          <mxGeometry y="40" width="260" height="30" as="geometry" />
        </mxCell>
        <mxCell id="3zTF_9KZKke-XSM9ItIY-86" value="IncreaseDamage" style="swimlane;fontStyle=1;align=center;verticalAlign=top;childLayout=stackLayout;horizontal=1;startSize=26;horizontalStack=0;resizeParent=1;resizeParentMax=0;resizeLast=0;collapsible=1;marginBottom=0;whiteSpace=wrap;html=1;" parent="1" vertex="1">
          <mxGeometry x="250" y="940" width="160" height="52" as="geometry" />
        </mxCell>
        <mxCell id="3zTF_9KZKke-XSM9ItIY-87" value="+value: Int" style="text;strokeColor=none;fillColor=none;align=left;verticalAlign=top;spacingLeft=4;spacingRight=4;overflow=hidden;rotatable=0;points=[[0,0.5],[1,0.5]];portConstraint=eastwest;whiteSpace=wrap;html=1;" parent="3zTF_9KZKke-XSM9ItIY-86" vertex="1">
          <mxGeometry y="26" width="160" height="26" as="geometry" />
        </mxCell>
        <mxCell id="3zTF_9KZKke-XSM9ItIY-90" value="ScaleDefense" style="swimlane;fontStyle=1;align=center;verticalAlign=top;childLayout=stackLayout;horizontal=1;startSize=26;horizontalStack=0;resizeParent=1;resizeParentMax=0;resizeLast=0;collapsible=1;marginBottom=0;whiteSpace=wrap;html=1;" parent="1" vertex="1">
          <mxGeometry x="430" y="940" width="160" height="52" as="geometry" />
        </mxCell>
        <mxCell id="3zTF_9KZKke-XSM9ItIY-91" value="+percentage: Double" style="text;strokeColor=none;fillColor=none;align=left;verticalAlign=top;spacingLeft=4;spacingRight=4;overflow=hidden;rotatable=0;points=[[0,0.5],[1,0.5]];portConstraint=eastwest;whiteSpace=wrap;html=1;" parent="3zTF_9KZKke-XSM9ItIY-90" vertex="1">
          <mxGeometry y="26" width="160" height="26" as="geometry" />
        </mxCell>
        <mxCell id="3zTF_9KZKke-XSM9ItIY-92" value="" style="endArrow=classic;html=1;rounded=0;dashed=1;exitX=0.5;exitY=0;exitDx=0;exitDy=0;" parent="1" source="3zTF_9KZKke-XSM9ItIY-90" edge="1">
          <mxGeometry width="50" height="50" relative="1" as="geometry">
            <mxPoint x="340" y="950" as="sourcePoint" />
            <mxPoint x="460" y="810" as="targetPoint" />
          </mxGeometry>
        </mxCell>
        <mxCell id="3zTF_9KZKke-XSM9ItIY-93" value="Poison" style="swimlane;fontStyle=1;align=center;verticalAlign=top;childLayout=stackLayout;horizontal=1;startSize=26;horizontalStack=0;resizeParent=1;resizeParentMax=0;resizeLast=0;collapsible=1;marginBottom=0;whiteSpace=wrap;html=1;" parent="1" vertex="1">
          <mxGeometry x="600" y="940" width="160" height="52" as="geometry" />
        </mxCell>
        <mxCell id="3zTF_9KZKke-XSM9ItIY-94" value="+ Poison(value: Int)" style="text;strokeColor=none;fillColor=none;align=left;verticalAlign=top;spacingLeft=4;spacingRight=4;overflow=hidden;rotatable=0;points=[[0,0.5],[1,0.5]];portConstraint=eastwest;whiteSpace=wrap;html=1;" parent="3zTF_9KZKke-XSM9ItIY-93" vertex="1">
          <mxGeometry y="26" width="160" height="26" as="geometry" />
        </mxCell>
        <mxCell id="3zTF_9KZKke-XSM9ItIY-97" value="" style="endArrow=classic;html=1;rounded=0;entryX=0.548;entryY=1.041;entryDx=0;entryDy=0;dashed=1;exitX=0.5;exitY=0;exitDx=0;exitDy=0;entryPerimeter=0;" parent="1" target="3zTF_9KZKke-XSM9ItIY-84" edge="1">
          <mxGeometry width="50" height="50" relative="1" as="geometry">
            <mxPoint x="670" y="939" as="sourcePoint" />
            <mxPoint x="625" y="810" as="targetPoint" />
          </mxGeometry>
        </mxCell>
        <mxCell id="3zTF_9KZKke-XSM9ItIY-98" value="Recipe" style="swimlane;fontStyle=1;align=center;verticalAlign=top;childLayout=stackLayout;horizontal=1;startSize=26;horizontalStack=0;resizeParent=1;resizeParentMax=0;resizeLast=0;collapsible=1;marginBottom=0;whiteSpace=wrap;html=1;" parent="1" vertex="1">
          <mxGeometry x="1050" y="400" width="290" height="112" as="geometry" />
        </mxCell>
        <mxCell id="3zTF_9KZKke-XSM9ItIY-99" value="+input: Vector[ItemStack]" style="text;strokeColor=none;fillColor=none;align=left;verticalAlign=top;spacingLeft=4;spacingRight=4;overflow=hidden;rotatable=0;points=[[0,0.5],[1,0.5]];portConstraint=eastwest;whiteSpace=wrap;html=1;" parent="3zTF_9KZKke-XSM9ItIY-98" vertex="1">
          <mxGeometry y="26" width="290" height="26" as="geometry" />
        </mxCell>
        <mxCell id="3zTF_9KZKke-XSM9ItIY-102" value="+output: Item" style="text;strokeColor=none;fillColor=none;align=left;verticalAlign=top;spacingLeft=4;spacingRight=4;overflow=hidden;rotatable=0;points=[[0,0.5],[1,0.5]];portConstraint=eastwest;whiteSpace=wrap;html=1;" parent="3zTF_9KZKke-XSM9ItIY-98" vertex="1">
          <mxGeometry y="52" width="290" height="26" as="geometry" />
        </mxCell>
        <mxCell id="3zTF_9KZKke-XSM9ItIY-100" value="" style="line;strokeWidth=1;fillColor=none;align=left;verticalAlign=middle;spacingTop=-1;spacingLeft=3;spacingRight=3;rotatable=0;labelPosition=right;points=[];portConstraint=eastwest;strokeColor=inherit;" parent="3zTF_9KZKke-XSM9ItIY-98" vertex="1">
          <mxGeometry y="78" width="290" height="8" as="geometry" />
        </mxCell>
        <mxCell id="3zTF_9KZKke-XSM9ItIY-103" value="+ craftItem(input: Vector[ItemStack]): Option[Item]" style="text;strokeColor=none;fillColor=none;align=left;verticalAlign=top;spacingLeft=4;spacingRight=4;overflow=hidden;rotatable=0;points=[[0,0.5],[1,0.5]];portConstraint=eastwest;whiteSpace=wrap;html=1;" parent="3zTF_9KZKke-XSM9ItIY-98" vertex="1">
          <mxGeometry y="86" width="290" height="26" as="geometry" />
        </mxCell>
        <mxCell id="3zTF_9KZKke-XSM9ItIY-104" value="GameRules" style="swimlane;fontStyle=1;align=center;verticalAlign=top;childLayout=stackLayout;horizontal=1;startSize=26;horizontalStack=0;resizeParent=1;resizeParentMax=0;resizeLast=0;collapsible=1;marginBottom=0;whiteSpace=wrap;html=1;" parent="1" vertex="1">
          <mxGeometry x="1000" y="581" width="430" height="294" as="geometry" />
        </mxCell>
        <mxCell id="3zTF_9KZKke-XSM9ItIY-105" value="+ itemTypes: Vector[Item]" style="text;strokeColor=none;fillColor=none;align=left;verticalAlign=top;spacingLeft=4;spacingRight=4;overflow=hidden;rotatable=0;points=[[0,0.5],[1,0.5]];portConstraint=eastwest;whiteSpace=wrap;html=1;" parent="3zTF_9KZKke-XSM9ItIY-104" vertex="1">
          <mxGeometry y="26" width="430" height="26" as="geometry" />
        </mxCell>
        <mxCell id="3zTF_9KZKke-XSM9ItIY-108" value="+ recipeTypes: Vector[Item]" style="text;strokeColor=none;fillColor=none;align=left;verticalAlign=top;spacingLeft=4;spacingRight=4;overflow=hidden;rotatable=0;points=[[0,0.5],[1,0.5]];portConstraint=eastwest;whiteSpace=wrap;html=1;" parent="3zTF_9KZKke-XSM9ItIY-104" vertex="1">
          <mxGeometry y="52" width="430" height="26" as="geometry" />
        </mxCell>
        <mxCell id="3zTF_9KZKke-XSM9ItIY-106" value="" style="line;strokeWidth=1;fillColor=none;align=left;verticalAlign=middle;spacingTop=-1;spacingLeft=3;spacingRight=3;rotatable=0;labelPosition=right;points=[];portConstraint=eastwest;strokeColor=inherit;" parent="3zTF_9KZKke-XSM9ItIY-104" vertex="1">
          <mxGeometry y="78" width="430" height="8" as="geometry" />
        </mxCell>
        <mxCell id="3zTF_9KZKke-XSM9ItIY-107" value="+ getItems(p: Item =&amp;gt; Boolean): Option[Vector[Item]]" style="text;strokeColor=none;fillColor=none;align=left;verticalAlign=top;spacingLeft=4;spacingRight=4;overflow=hidden;rotatable=0;points=[[0,0.5],[1,0.5]];portConstraint=eastwest;whiteSpace=wrap;html=1;" parent="3zTF_9KZKke-XSM9ItIY-104" vertex="1">
          <mxGeometry y="86" width="430" height="26" as="geometry" />
        </mxCell>
        <mxCell id="3zTF_9KZKke-XSM9ItIY-109" value="+ getPlaceables(p: Placeable =&amp;gt; Boolean): Option[Vector[Placeable]]" style="text;strokeColor=none;fillColor=none;align=left;verticalAlign=top;spacingLeft=4;spacingRight=4;overflow=hidden;rotatable=0;points=[[0,0.5],[1,0.5]];portConstraint=eastwest;whiteSpace=wrap;html=1;" parent="3zTF_9KZKke-XSM9ItIY-104" vertex="1">
          <mxGeometry y="112" width="430" height="26" as="geometry" />
        </mxCell>
        <mxCell id="3zTF_9KZKke-XSM9ItIY-110" value="+ getConsumable(p: Consumable =&amp;gt; Boolean): Option[Vector[Consumable]]" style="text;strokeColor=none;fillColor=none;align=left;verticalAlign=top;spacingLeft=4;spacingRight=4;overflow=hidden;rotatable=0;points=[[0,0.5],[1,0.5]];portConstraint=eastwest;whiteSpace=wrap;html=1;" parent="3zTF_9KZKke-XSM9ItIY-104" vertex="1">
          <mxGeometry y="138" width="430" height="26" as="geometry" />
        </mxCell>
        <mxCell id="3zTF_9KZKke-XSM9ItIY-111" value="+ getWeapon(p: Weapon =&amp;gt; Boolean): Option[Vector[Weapon]]" style="text;strokeColor=none;fillColor=none;align=left;verticalAlign=top;spacingLeft=4;spacingRight=4;overflow=hidden;rotatable=0;points=[[0,0.5],[1,0.5]];portConstraint=eastwest;whiteSpace=wrap;html=1;" parent="3zTF_9KZKke-XSM9ItIY-104" vertex="1">
          <mxGeometry y="164" width="430" height="26" as="geometry" />
        </mxCell>
        <mxCell id="3zTF_9KZKke-XSM9ItIY-112" value="+ getArmor(p: Armor =&amp;gt; Boolean): Option[Vector[Armor]]" style="text;strokeColor=none;fillColor=none;align=left;verticalAlign=top;spacingLeft=4;spacingRight=4;overflow=hidden;rotatable=0;points=[[0,0.5],[1,0.5]];portConstraint=eastwest;whiteSpace=wrap;html=1;" parent="3zTF_9KZKke-XSM9ItIY-104" vertex="1">
          <mxGeometry y="190" width="430" height="26" as="geometry" />
        </mxCell>
        <mxCell id="3zTF_9KZKke-XSM9ItIY-113" value="+ getEquipment(p: Equipment =&amp;gt; Boolean): Option[Vector[Equipment]]" style="text;strokeColor=none;fillColor=none;align=left;verticalAlign=top;spacingLeft=4;spacingRight=4;overflow=hidden;rotatable=0;points=[[0,0.5],[1,0.5]];portConstraint=eastwest;whiteSpace=wrap;html=1;" parent="3zTF_9KZKke-XSM9ItIY-104" vertex="1">
          <mxGeometry y="216" width="430" height="26" as="geometry" />
        </mxCell>
        <mxCell id="3zTF_9KZKke-XSM9ItIY-114" value="+ materials: Option[Vector[Item]]" style="text;strokeColor=none;fillColor=none;align=left;verticalAlign=top;spacingLeft=4;spacingRight=4;overflow=hidden;rotatable=0;points=[[0,0.5],[1,0.5]];portConstraint=eastwest;whiteSpace=wrap;html=1;" parent="3zTF_9KZKke-XSM9ItIY-104" vertex="1">
          <mxGeometry y="242" width="430" height="26" as="geometry" />
        </mxCell>
        <mxCell id="3zTF_9KZKke-XSM9ItIY-115" value="+ craftables: Option[Vector[Item]]" style="text;strokeColor=none;fillColor=none;align=left;verticalAlign=top;spacingLeft=4;spacingRight=4;overflow=hidden;rotatable=0;points=[[0,0.5],[1,0.5]];portConstraint=eastwest;whiteSpace=wrap;html=1;" parent="3zTF_9KZKke-XSM9ItIY-104" vertex="1">
          <mxGeometry y="268" width="430" height="26" as="geometry" />
        </mxCell>
        <mxCell id="3zTF_9KZKke-XSM9ItIY-125" value="&lt;b&gt;Tick&lt;/b&gt;" style="html=1;whiteSpace=wrap;" parent="1" vertex="1">
          <mxGeometry x="1570" y="707" width="110" height="50" as="geometry" />
        </mxCell>
        <mxCell id="3zTF_9KZKke-XSM9ItIY-128" value="Join" style="swimlane;fontStyle=1;align=center;verticalAlign=top;childLayout=stackLayout;horizontal=1;startSize=26;horizontalStack=0;resizeParent=1;resizeParentMax=0;resizeLast=0;collapsible=1;marginBottom=0;whiteSpace=wrap;html=1;" parent="1" vertex="1">
          <mxGeometry x="1520" y="808" width="160" height="52" as="geometry" />
        </mxCell>
        <mxCell id="3zTF_9KZKke-XSM9ItIY-129" value="+ player: Player" style="text;strokeColor=none;fillColor=none;align=left;verticalAlign=top;spacingLeft=4;spacingRight=4;overflow=hidden;rotatable=0;points=[[0,0.5],[1,0.5]];portConstraint=eastwest;whiteSpace=wrap;html=1;" parent="3zTF_9KZKke-XSM9ItIY-128" vertex="1">
          <mxGeometry y="26" width="160" height="26" as="geometry" />
        </mxCell>
        <mxCell id="3zTF_9KZKke-XSM9ItIY-138" value="&lt;b&gt;LeavePlayer&lt;/b&gt;" style="swimlane;fontStyle=0;childLayout=stackLayout;horizontal=1;startSize=26;fillColor=none;horizontalStack=0;resizeParent=1;resizeParentMax=0;resizeLast=0;collapsible=1;marginBottom=0;whiteSpace=wrap;html=1;" parent="1" vertex="1">
          <mxGeometry x="1540" y="886" width="140" height="52" as="geometry" />
        </mxCell>
        <mxCell id="3zTF_9KZKke-XSM9ItIY-141" value="+id: String" style="text;strokeColor=none;fillColor=none;align=left;verticalAlign=top;spacingLeft=4;spacingRight=4;overflow=hidden;rotatable=0;points=[[0,0.5],[1,0.5]];portConstraint=eastwest;whiteSpace=wrap;html=1;" parent="3zTF_9KZKke-XSM9ItIY-138" vertex="1">
          <mxGeometry y="26" width="140" height="26" as="geometry" />
        </mxCell>
        <mxCell id="3zTF_9KZKke-XSM9ItIY-142" value="&lt;b&gt;Die&lt;/b&gt;" style="swimlane;fontStyle=0;childLayout=stackLayout;horizontal=1;startSize=26;fillColor=none;horizontalStack=0;resizeParent=1;resizeParentMax=0;resizeLast=0;collapsible=1;marginBottom=0;whiteSpace=wrap;html=1;" parent="1" vertex="1">
          <mxGeometry x="1530" y="970" width="140" height="52" as="geometry" />
        </mxCell>
        <mxCell id="3zTF_9KZKke-XSM9ItIY-143" value="+id: String" style="text;strokeColor=none;fillColor=none;align=left;verticalAlign=top;spacingLeft=4;spacingRight=4;overflow=hidden;rotatable=0;points=[[0,0.5],[1,0.5]];portConstraint=eastwest;whiteSpace=wrap;html=1;" parent="3zTF_9KZKke-XSM9ItIY-142" vertex="1">
          <mxGeometry y="26" width="140" height="26" as="geometry" />
        </mxCell>
        <mxCell id="3zTF_9KZKke-XSM9ItIY-144" value="&lt;b&gt;Mine&lt;/b&gt;" style="swimlane;fontStyle=0;childLayout=stackLayout;horizontal=1;startSize=26;fillColor=none;horizontalStack=0;resizeParent=1;resizeParentMax=0;resizeLast=0;collapsible=1;marginBottom=0;whiteSpace=wrap;html=1;" parent="1" vertex="1">
          <mxGeometry x="1530" y="1050" width="140" height="78" as="geometry" />
        </mxCell>
        <mxCell id="3zTF_9KZKke-XSM9ItIY-145" value="+id: String" style="text;strokeColor=none;fillColor=none;align=left;verticalAlign=top;spacingLeft=4;spacingRight=4;overflow=hidden;rotatable=0;points=[[0,0.5],[1,0.5]];portConstraint=eastwest;whiteSpace=wrap;html=1;" parent="3zTF_9KZKke-XSM9ItIY-144" vertex="1">
          <mxGeometry y="26" width="140" height="26" as="geometry" />
        </mxCell>
        <mxCell id="3zTF_9KZKke-XSM9ItIY-146" value="+position: Position" style="text;strokeColor=none;fillColor=none;align=left;verticalAlign=top;spacingLeft=4;spacingRight=4;overflow=hidden;rotatable=0;points=[[0,0.5],[1,0.5]];portConstraint=eastwest;whiteSpace=wrap;html=1;" parent="3zTF_9KZKke-XSM9ItIY-144" vertex="1">
          <mxGeometry y="52" width="140" height="26" as="geometry" />
        </mxCell>
        <mxCell id="3zTF_9KZKke-XSM9ItIY-147" value="&lt;div&gt;«interface»&lt;/div&gt;&lt;div&gt;&lt;b&gt;Request&lt;/b&gt;&lt;/div&gt;" style="swimlane;fontStyle=0;childLayout=stackLayout;horizontal=1;startSize=29;fillColor=none;horizontalStack=0;resizeParent=1;resizeParentMax=0;resizeLast=0;collapsible=1;marginBottom=0;whiteSpace=wrap;html=1;" parent="1" vertex="1">
          <mxGeometry x="1630" y="575.5" width="310" height="55" as="geometry" />
        </mxCell>
        <mxCell id="3zTF_9KZKke-XSM9ItIY-150" value="+ applyRequest(state: WorldState): WorldState" style="text;strokeColor=none;fillColor=none;align=left;verticalAlign=top;spacingLeft=4;spacingRight=4;overflow=hidden;rotatable=0;points=[[0,0.5],[1,0.5]];portConstraint=eastwest;whiteSpace=wrap;html=1;" parent="3zTF_9KZKke-XSM9ItIY-147" vertex="1">
          <mxGeometry y="29" width="310" height="26" as="geometry" />
        </mxCell>
        <mxCell id="3zTF_9KZKke-XSM9ItIY-151" value="&lt;b&gt;StoreItem&lt;/b&gt;" style="swimlane;fontStyle=0;childLayout=stackLayout;horizontal=1;startSize=26;fillColor=none;horizontalStack=0;resizeParent=1;resizeParentMax=0;resizeLast=0;collapsible=1;marginBottom=0;whiteSpace=wrap;html=1;" parent="1" vertex="1">
          <mxGeometry x="1530" y="1170" width="140" height="78" as="geometry" />
        </mxCell>
        <mxCell id="3zTF_9KZKke-XSM9ItIY-152" value="+playerID: String" style="text;strokeColor=none;fillColor=none;align=left;verticalAlign=top;spacingLeft=4;spacingRight=4;overflow=hidden;rotatable=0;points=[[0,0.5],[1,0.5]];portConstraint=eastwest;whiteSpace=wrap;html=1;" parent="3zTF_9KZKke-XSM9ItIY-151" vertex="1">
          <mxGeometry y="26" width="140" height="26" as="geometry" />
        </mxCell>
        <mxCell id="3zTF_9KZKke-XSM9ItIY-153" value="+chestID: Position" style="text;strokeColor=none;fillColor=none;align=left;verticalAlign=top;spacingLeft=4;spacingRight=4;overflow=hidden;rotatable=0;points=[[0,0.5],[1,0.5]];portConstraint=eastwest;whiteSpace=wrap;html=1;" parent="3zTF_9KZKke-XSM9ItIY-151" vertex="1">
          <mxGeometry y="52" width="140" height="26" as="geometry" />
        </mxCell>
        <mxCell id="3zTF_9KZKke-XSM9ItIY-154" value="&lt;b&gt;LootItem&lt;/b&gt;" style="swimlane;fontStyle=0;childLayout=stackLayout;horizontal=1;startSize=26;fillColor=none;horizontalStack=0;resizeParent=1;resizeParentMax=0;resizeLast=0;collapsible=1;marginBottom=0;whiteSpace=wrap;html=1;" parent="1" vertex="1">
          <mxGeometry x="2095" y="1110" width="140" height="104" as="geometry" />
        </mxCell>
        <mxCell id="3zTF_9KZKke-XSM9ItIY-155" value="+playerID: String" style="text;strokeColor=none;fillColor=none;align=left;verticalAlign=top;spacingLeft=4;spacingRight=4;overflow=hidden;rotatable=0;points=[[0,0.5],[1,0.5]];portConstraint=eastwest;whiteSpace=wrap;html=1;" parent="3zTF_9KZKke-XSM9ItIY-154" vertex="1">
          <mxGeometry y="26" width="140" height="26" as="geometry" />
        </mxCell>
        <mxCell id="3zTF_9KZKke-XSM9ItIY-156" value="+chestID: Position" style="text;strokeColor=none;fillColor=none;align=left;verticalAlign=top;spacingLeft=4;spacingRight=4;overflow=hidden;rotatable=0;points=[[0,0.5],[1,0.5]];portConstraint=eastwest;whiteSpace=wrap;html=1;" parent="3zTF_9KZKke-XSM9ItIY-154" vertex="1">
          <mxGeometry y="52" width="140" height="26" as="geometry" />
        </mxCell>
        <mxCell id="3zTF_9KZKke-XSM9ItIY-157" value="+index: Int" style="text;strokeColor=none;fillColor=none;align=left;verticalAlign=top;spacingLeft=4;spacingRight=4;overflow=hidden;rotatable=0;points=[[0,0.5],[1,0.5]];portConstraint=eastwest;whiteSpace=wrap;html=1;" parent="3zTF_9KZKke-XSM9ItIY-154" vertex="1">
          <mxGeometry y="78" width="140" height="26" as="geometry" />
        </mxCell>
        <mxCell id="3zTF_9KZKke-XSM9ItIY-158" value="&lt;b&gt;Consume&lt;/b&gt;" style="swimlane;fontStyle=0;childLayout=stackLayout;horizontal=1;startSize=26;fillColor=none;horizontalStack=0;resizeParent=1;resizeParentMax=0;resizeLast=0;collapsible=1;marginBottom=0;whiteSpace=wrap;html=1;" parent="1" vertex="1">
          <mxGeometry x="1690" y="1250" width="140" height="52" as="geometry" />
        </mxCell>
        <mxCell id="3zTF_9KZKke-XSM9ItIY-159" value="+playerID: String" style="text;strokeColor=none;fillColor=none;align=left;verticalAlign=top;spacingLeft=4;spacingRight=4;overflow=hidden;rotatable=0;points=[[0,0.5],[1,0.5]];portConstraint=eastwest;whiteSpace=wrap;html=1;" parent="3zTF_9KZKke-XSM9ItIY-158" vertex="1">
          <mxGeometry y="26" width="140" height="26" as="geometry" />
        </mxCell>
        <mxCell id="3zTF_9KZKke-XSM9ItIY-164" value="&lt;b&gt;MoveEntity&lt;/b&gt;" style="swimlane;fontStyle=0;childLayout=stackLayout;horizontal=1;startSize=26;fillColor=none;horizontalStack=0;resizeParent=1;resizeParentMax=0;resizeLast=0;collapsible=1;marginBottom=0;whiteSpace=wrap;html=1;" parent="1" vertex="1">
          <mxGeometry x="1840" y="1250" width="140" height="78" as="geometry" />
        </mxCell>
        <mxCell id="3zTF_9KZKke-XSM9ItIY-165" value="+entityID: String" style="text;strokeColor=none;fillColor=none;align=left;verticalAlign=top;spacingLeft=4;spacingRight=4;overflow=hidden;rotatable=0;points=[[0,0.5],[1,0.5]];portConstraint=eastwest;whiteSpace=wrap;html=1;" parent="3zTF_9KZKke-XSM9ItIY-164" vertex="1">
          <mxGeometry y="26" width="140" height="26" as="geometry" />
        </mxCell>
        <mxCell id="3zTF_9KZKke-XSM9ItIY-166" value="+position: Position" style="text;strokeColor=none;fillColor=none;align=left;verticalAlign=top;spacingLeft=4;spacingRight=4;overflow=hidden;rotatable=0;points=[[0,0.5],[1,0.5]];portConstraint=eastwest;whiteSpace=wrap;html=1;" parent="3zTF_9KZKke-XSM9ItIY-164" vertex="1">
          <mxGeometry y="52" width="140" height="26" as="geometry" />
        </mxCell>
        <mxCell id="3zTF_9KZKke-XSM9ItIY-167" value="&lt;b&gt;HitEntity&lt;/b&gt;" style="swimlane;fontStyle=0;childLayout=stackLayout;horizontal=1;startSize=26;fillColor=none;horizontalStack=0;resizeParent=1;resizeParentMax=0;resizeLast=0;collapsible=1;marginBottom=0;whiteSpace=wrap;html=1;" parent="1" vertex="1">
          <mxGeometry x="2000" y="1248" width="140" height="78" as="geometry" />
        </mxCell>
        <mxCell id="3zTF_9KZKke-XSM9ItIY-168" value="+attackerID: String" style="text;strokeColor=none;fillColor=none;align=left;verticalAlign=top;spacingLeft=4;spacingRight=4;overflow=hidden;rotatable=0;points=[[0,0.5],[1,0.5]];portConstraint=eastwest;whiteSpace=wrap;html=1;" parent="3zTF_9KZKke-XSM9ItIY-167" vertex="1">
          <mxGeometry y="26" width="140" height="26" as="geometry" />
        </mxCell>
        <mxCell id="3zTF_9KZKke-XSM9ItIY-169" value="+defenderID: String" style="text;strokeColor=none;fillColor=none;align=left;verticalAlign=top;spacingLeft=4;spacingRight=4;overflow=hidden;rotatable=0;points=[[0,0.5],[1,0.5]];portConstraint=eastwest;whiteSpace=wrap;html=1;" parent="3zTF_9KZKke-XSM9ItIY-167" vertex="1">
          <mxGeometry y="52" width="140" height="26" as="geometry" />
        </mxCell>
        <mxCell id="3zTF_9KZKke-XSM9ItIY-170" value="" style="endArrow=classic;html=1;rounded=0;entryX=0.506;entryY=1.096;entryDx=0;entryDy=0;dashed=1;exitX=0.5;exitY=0;exitDx=0;exitDy=0;entryPerimeter=0;" parent="1" target="3zTF_9KZKke-XSM9ItIY-150" edge="1">
          <mxGeometry width="50" height="50" relative="1" as="geometry">
            <mxPoint x="1680" y="740" as="sourcePoint" />
            <mxPoint x="1821" y="671" as="targetPoint" />
          </mxGeometry>
        </mxCell>
        <mxCell id="3zTF_9KZKke-XSM9ItIY-171" value="" style="endArrow=classic;html=1;rounded=0;entryX=0.523;entryY=1.058;entryDx=0;entryDy=0;dashed=1;exitX=1;exitY=0.115;exitDx=0;exitDy=0;entryPerimeter=0;exitPerimeter=0;" parent="1" source="3zTF_9KZKke-XSM9ItIY-129" target="3zTF_9KZKke-XSM9ItIY-150" edge="1">
          <mxGeometry width="50" height="50" relative="1" as="geometry">
            <mxPoint x="1706.5" y="737.5" as="sourcePoint" />
            <mxPoint x="1813.5" y="630.5" as="targetPoint" />
          </mxGeometry>
        </mxCell>
        <mxCell id="3zTF_9KZKke-XSM9ItIY-172" value="" style="endArrow=classic;html=1;rounded=0;entryX=0.519;entryY=1.173;entryDx=0;entryDy=0;dashed=1;exitX=1;exitY=0.115;exitDx=0;exitDy=0;entryPerimeter=0;exitPerimeter=0;" parent="1" target="3zTF_9KZKke-XSM9ItIY-150" edge="1">
          <mxGeometry width="50" height="50" relative="1" as="geometry">
            <mxPoint x="1680" y="915" as="sourcePoint" />
            <mxPoint x="1792" y="710" as="targetPoint" />
          </mxGeometry>
        </mxCell>
        <mxCell id="3zTF_9KZKke-XSM9ItIY-173" value="" style="endArrow=classic;html=1;rounded=0;entryX=0.513;entryY=1.058;entryDx=0;entryDy=0;dashed=1;exitX=1;exitY=0.115;exitDx=0;exitDy=0;entryPerimeter=0;exitPerimeter=0;" parent="1" target="3zTF_9KZKke-XSM9ItIY-150" edge="1">
          <mxGeometry width="50" height="50" relative="1" as="geometry">
            <mxPoint x="1670" y="1000" as="sourcePoint" />
            <mxPoint x="1781" y="720" as="targetPoint" />
          </mxGeometry>
        </mxCell>
        <mxCell id="3zTF_9KZKke-XSM9ItIY-174" value="" style="endArrow=classic;html=1;rounded=0;dashed=1;exitX=1;exitY=0.115;exitDx=0;exitDy=0;exitPerimeter=0;" parent="1" edge="1">
          <mxGeometry width="50" height="50" relative="1" as="geometry">
            <mxPoint x="1670" y="1090" as="sourcePoint" />
            <mxPoint x="1790" y="640" as="targetPoint" />
          </mxGeometry>
        </mxCell>
        <mxCell id="3zTF_9KZKke-XSM9ItIY-175" value="" style="endArrow=classic;html=1;rounded=0;entryX=0.519;entryY=1.096;entryDx=0;entryDy=0;dashed=1;exitX=1;exitY=0.115;exitDx=0;exitDy=0;entryPerimeter=0;exitPerimeter=0;" parent="1" target="3zTF_9KZKke-XSM9ItIY-150" edge="1">
          <mxGeometry width="50" height="50" relative="1" as="geometry">
            <mxPoint x="1670" y="1210" as="sourcePoint" />
            <mxPoint x="1781" y="930" as="targetPoint" />
          </mxGeometry>
        </mxCell>
        <mxCell id="3zTF_9KZKke-XSM9ItIY-176" value="" style="endArrow=classic;html=1;rounded=0;entryX=0.519;entryY=1.058;entryDx=0;entryDy=0;dashed=1;exitX=0;exitY=0;exitDx=0;exitDy=0;entryPerimeter=0;" parent="1" source="3zTF_9KZKke-XSM9ItIY-154" target="3zTF_9KZKke-XSM9ItIY-150" edge="1">
          <mxGeometry width="50" height="50" relative="1" as="geometry">
            <mxPoint x="1720" y="955" as="sourcePoint" />
            <mxPoint x="1831" y="675" as="targetPoint" />
          </mxGeometry>
        </mxCell>
        <mxCell id="3zTF_9KZKke-XSM9ItIY-177" value="" style="endArrow=classic;html=1;rounded=0;dashed=1;exitX=0.5;exitY=0;exitDx=0;exitDy=0;" parent="1" source="3zTF_9KZKke-XSM9ItIY-167" edge="1">
          <mxGeometry width="50" height="50" relative="1" as="geometry">
            <mxPoint x="1730" y="965" as="sourcePoint" />
            <mxPoint x="1790" y="640" as="targetPoint" />
          </mxGeometry>
        </mxCell>
        <mxCell id="3zTF_9KZKke-XSM9ItIY-178" value="" style="endArrow=classic;html=1;rounded=0;entryX=0.51;entryY=1.135;entryDx=0;entryDy=0;dashed=1;exitX=0.5;exitY=0;exitDx=0;exitDy=0;entryPerimeter=0;" parent="1" source="3zTF_9KZKke-XSM9ItIY-164" target="3zTF_9KZKke-XSM9ItIY-150" edge="1">
          <mxGeometry width="50" height="50" relative="1" as="geometry">
            <mxPoint x="1740" y="975" as="sourcePoint" />
            <mxPoint x="1851" y="695" as="targetPoint" />
          </mxGeometry>
        </mxCell>
        <mxCell id="3zTF_9KZKke-XSM9ItIY-179" value="" style="endArrow=classic;html=1;rounded=0;entryX=0.51;entryY=1.096;entryDx=0;entryDy=0;dashed=1;exitX=0.5;exitY=0;exitDx=0;exitDy=0;entryPerimeter=0;" parent="1" source="3zTF_9KZKke-XSM9ItIY-158" target="3zTF_9KZKke-XSM9ItIY-150" edge="1">
          <mxGeometry width="50" height="50" relative="1" as="geometry">
            <mxPoint x="1750" y="985" as="sourcePoint" />
            <mxPoint x="1861" y="705" as="targetPoint" />
          </mxGeometry>
        </mxCell>
      </root>
    </mxGraphModel>
  </diagram>
</mxfile>
